<?xml version="1.0" encoding="UTF-8"?>
<svg version="1.1" xmlns="http://www.w3.org/2000/svg" width="512" height="512">
<path d="M0 0 C0.82177734 -0.02449219 1.64355469 -0.04898438 2.49023438 -0.07421875 C15.33250953 -0.13390399 25.63401386 5.89648916 36.3125 12.375 C37.60444726 13.14702551 38.89701842 13.91800783 40.19018555 14.68798828 C43.34820982 16.57171685 46.49853051 18.46785534 49.64593506 20.3692627 C51.93345491 21.74973338 54.22626984 23.12128088 56.51953125 24.4921875 C59.63751496 26.35768969 62.75137224 28.22985343 65.86328125 30.10546875 C70.12145119 32.66686554 74.39249551 35.20592844 78.66796875 37.73828125 C79.3240361 38.12691345 79.98010345 38.51554565 80.65605164 38.91595459 C82.01638951 39.72171456 83.37673612 40.52745976 84.73709106 41.33319092 C85.42197601 41.73886292 86.10686096 42.14453491 86.8125 42.5625 C87.49794891 42.96849426 88.18339783 43.37448853 88.88961792 43.79278564 C98.52932252 49.50521366 108.12458754 55.28508178 117.6875 61.125 C127.73819622 67.26184606 137.88380404 73.21589822 148.10058594 79.07226562 C155.21380985 83.15245075 162.27333753 87.30851881 169.29296875 91.54736328 C174.40910172 94.63548871 179.5378624 97.7010058 184.6796875 100.74609375 C185.33569443 101.13459503 185.99170135 101.52309631 186.66758728 101.92337036 C188.02646342 102.72805697 189.38534514 103.53273415 190.74423218 104.33740234 C202.07050753 111.04629818 213.37109893 117.79531758 224.625 124.625 C226.30335938 125.64243286 226.30335938 125.64243286 228.015625 126.68041992 C231.12058094 128.5690329 234.21785081 130.46955548 237.3125 132.375 C238.33770752 132.99938965 239.36291504 133.6237793 240.41918945 134.26708984 C241.39718506 134.87246582 242.37518066 135.4778418 243.3828125 136.1015625 C244.24793457 136.63346191 245.11305664 137.16536133 246.00439453 137.71337891 C251.07993647 141.36729666 254.42079928 146.45499016 256.3125 152.375 C257.27486748 161.80620133 257.29983761 170.53650487 251.3125 178.375 C246.56785064 183.59609951 241.09687916 187.91238218 233.87597656 188.6105957 C231.20244181 188.66909483 228.54802743 188.63755261 225.875 188.5625 C224.95267578 188.54896484 224.03035156 188.53542969 223.08007812 188.52148438 C220.82359617 188.48640953 218.56836774 188.43726387 216.3125 188.375 C216.79783203 189.41720703 216.79783203 189.41720703 217.29296875 190.48046875 C219.67140619 197.23304402 219.38499239 205.96856822 216.4140625 212.53515625 C212.53356434 219.01641382 207.62709006 224.06306707 200.3125 226.375 C198.0025 226.705 195.6925 227.035 193.3125 227.375 C193.3125 286.775 193.3125 346.175 193.3125 407.375 C195.9525 407.705 198.5925 408.035 201.3125 408.375 C208.56333321 411.75285401 214.81881522 417.58999411 217.81640625 425.109375 C219.14419026 431.17327046 219.27898338 438.47554987 217.3125 444.375 C218.25609375 444.44976562 219.1996875 444.52453125 220.171875 444.6015625 C231.34867275 445.74617432 240.73881758 448.22420706 248.8125 456.625 C256.3465916 466.08970258 257.45938406 475.63138506 256.3125 487.375 C254.47900894 495.98094868 249.1479453 503.04815011 241.93359375 508.01171875 C236.16838318 511.32647738 231.7187291 512.49315001 225.046875 512.55200195 C223.77875977 512.56483719 222.51064453 512.57767242 221.20410156 512.59089661 C219.82357169 512.59906211 218.44303739 512.6065062 217.0625 512.61328125 C216.3650769 512.61735678 215.66765381 512.6214323 214.94909668 512.62563133 C211.26164043 512.6464454 207.57422094 512.66077041 203.88671875 512.67016602 C200.08003983 512.6812556 196.27394141 512.71569708 192.46746826 512.75533772 C189.53693552 512.78147069 186.60654234 512.78985454 183.67590332 512.79344749 C182.27246148 512.7983176 180.86902605 512.80994386 179.46569824 512.82848549 C177.50331694 512.85281427 175.54065188 512.84949829 173.578125 512.8449707 C172.46211914 512.85083694 171.34611328 512.85670319 170.19628906 512.86274719 C166.64571861 512.2622245 165.44352053 511.23437395 163.3125 508.375 C163.3125 507.385 163.3125 506.395 163.3125 505.375 C158.6925 505.375 154.0725 505.375 149.3125 505.375 C148.9825 507.025 148.6525 508.675 148.3125 510.375 C144.76942655 512.73704897 143.29905041 512.62705861 139.09915829 512.63226891 C137.78959539 512.6387178 136.4800325 512.64516669 135.13078588 512.651811 C133.66872808 512.64886841 132.20667067 512.64573294 130.74461365 512.64242554 C129.19822421 512.64615983 127.65183666 512.65076046 126.10545212 512.65615618 C121.84452304 512.66842968 117.58367221 512.6681206 113.32272947 512.66576743 C108.7315336 512.66536034 104.14036318 512.67638827 99.54917908 512.68588257 C90.5484988 512.70251886 81.54784472 512.70799336 72.54715037 512.70910732 C65.23036942 512.71005684 57.91359713 512.7141623 50.59681892 512.72050858 C29.85828492 512.73813047 9.11977165 512.74734631 -11.61876989 512.74584763 C-12.73755678 512.74576772 -13.85634368 512.7456878 -15.0090332 512.74560547 C-16.12918475 512.74552371 -17.24933629 512.74544195 -18.40343183 512.74535771 C-36.54806092 512.7445452 -54.69260691 512.76367146 -72.83721197 512.7918822 C-91.46222555 512.82061151 -110.08719861 512.83442237 -128.71223491 512.83269465 C-139.17093501 512.83203062 -149.62954808 512.83752821 -160.08822823 512.85905075 C-168.99581322 512.87726345 -177.90327176 512.88160936 -186.81086732 512.8680319 C-191.35488846 512.86150187 -195.89866703 512.86138615 -200.4426651 512.8787384 C-204.60605189 512.89447336 -208.76900386 512.89160125 -212.93238007 512.87417014 C-214.43515211 512.87110109 -215.93795662 512.87472909 -217.44069035 512.88589029 C-229.63025336 512.97039785 -238.66439106 511.16015625 -247.70703125 502.59765625 C-255.53329928 493.81432981 -256.38852447 484.61467387 -255.85791016 473.31494141 C-255.10394557 464.7318431 -250.07021218 457.8563768 -243.6875 452.375 C-235.19491279 446.55115532 -226.71970364 445.16990138 -216.6875 444.375 C-217.1825 442.89 -217.1825 442.89 -217.6875 441.375 C-218.51090464 432.32931189 -218.19457913 424.84222593 -212.6875 417.375 C-208.06005897 412.16542886 -203.3644029 409.26678916 -196.6875 407.375 C-195.3675 407.375 -194.0475 407.375 -192.6875 407.375 C-192.6875 347.975 -192.6875 288.575 -192.6875 227.375 C-195.6575 226.715 -198.6275 226.055 -201.6875 225.375 C-208.81985733 222.40222425 -213.45099942 216.87842973 -216.8359375 210.0625 C-217.89025964 206.73509801 -217.95253018 203.86200164 -217.9375 200.375 C-217.94523437 198.580625 -217.94523437 198.580625 -217.953125 196.75 C-217.69867201 193.51695026 -217.07437122 191.28082541 -215.6875 188.375 C-216.51773682 188.41427612 -216.51773682 188.41427612 -217.36474609 188.4543457 C-239.16218733 189.35028632 -239.16218733 189.35028632 -247.7265625 181.5078125 C-254.23564201 174.6237243 -256.24735357 167.871379 -256.17016602 158.44580078 C-255.93393965 151.55944437 -254.23308873 145.98979006 -249.36157227 141.02319336 C-244.06670747 136.18554307 -237.9309597 132.76291558 -231.75 129.1875 C-230.56325197 128.49355814 -229.37698462 127.7987937 -228.19116211 127.10327148 C-225.66809414 125.62405011 -223.14324997 124.14792953 -220.6171875 122.67382812 C-214.65120392 119.18834382 -208.70897076 115.66276866 -202.7677002 112.13537598 C-201.41920465 111.33479598 -200.07048927 110.53458616 -198.72155762 109.73474121 C-189.6991225 104.3843976 -180.71451081 98.9760935 -171.76074219 93.51168823 C-162.80615136 88.04869873 -153.8306154 82.62664256 -144.75 77.375 C-143.89768799 76.87621338 -143.04537598 76.37742676 -142.16723633 75.86352539 C-140.98810669 75.18858032 -140.98810669 75.18858032 -139.78515625 74.5 C-138.77207397 73.91605469 -138.77207397 73.91605469 -137.73852539 73.3203125 C-135.35647883 72.22243317 -133.29765231 71.64978069 -130.6875 71.375 C-129.800625 71.973125 -128.91375 72.57125 -128 73.1875 C-124.80679372 74.72607139 -124.80679372 74.72607139 -122.08203125 73.453125 C-119.33809058 71.95150444 -117.00176414 70.48134197 -114.6875 68.375 C-114.18739476 65.33269177 -114.18739476 65.33269177 -114.6875 62.375 C-111.90145814 58.0785575 -108.66874889 55.87118972 -104.28125 53.328125 C-103.65292267 52.95977539 -103.02459534 52.59142578 -102.37722778 52.21191406 C-100.3189916 51.00745518 -98.25328599 49.8164549 -96.1875 48.625 C-94.00574717 47.35199675 -91.8261269 46.07539584 -89.64663696 44.79852295 C-88.16320306 43.92963848 -86.67912778 43.06184815 -85.19442749 42.19512939 C-78.75584197 38.43241743 -72.38303854 34.56806889 -66.02404785 30.67282104 C-56.2327519 24.67852416 -46.37763443 18.80581409 -36.4375 13.0625 C-35.37225098 12.44600586 -34.30700195 11.82951172 -33.20947266 11.19433594 C-22.11823255 4.82235521 -13.05602691 0.02000924 0 0 Z M-89.6875 188.375 C-89.3575 190.025 -89.0275 191.675 -88.6875 193.375 C-88.05138736 202.9289225 -88.41664072 210.4294624 -94.375 218.125 C-99.50791397 223.70259711 -105.5099592 225.32427406 -112.6875 227.375 C-112.6875 286.775 -112.6875 346.175 -112.6875 407.375 C-109.3875 408.365 -106.0875 409.355 -102.6875 410.375 C-95.73564065 414.70731815 -91.30116987 419.53399039 -88.6875 427.375 C-88.5920313 429.68590417 -88.55764613 431.99962975 -88.5625 434.3125 C-88.55863281 436.15134766 -88.55863281 436.15134766 -88.5546875 438.02734375 C-88.6875 441.375 -88.6875 441.375 -89.6875 445.375 C-80.7775 445.375 -71.8675 445.375 -62.6875 445.375 C-63.0175 444.055 -63.3475 442.735 -63.6875 441.375 C-64.48689067 432.30762581 -64.16726718 424.88892318 -58.6875 417.375 C-53.42393772 411.35767516 -47.32594607 409.28461152 -39.6875 407.375 C-39.6875 347.975 -39.6875 288.575 -39.6875 227.375 C-43.3175 226.055 -46.9475 224.735 -50.6875 223.375 C-57.16811219 220.07355605 -61.40177151 214.23218548 -63.6875 207.375 C-63.78315314 205.08495138 -63.81734575 202.7920403 -63.8125 200.5 C-63.81636719 198.67855469 -63.81636719 198.67855469 -63.8203125 196.8203125 C-63.6875 193.375 -63.6875 193.375 -62.6875 188.375 C-71.5975 188.375 -80.5075 188.375 -89.6875 188.375 Z M63.3125 188.375 C63.6425 190.025 63.9725 191.675 64.3125 193.375 C64.94861264 202.9289225 64.58335928 210.4294624 58.625 218.125 C53.49208603 223.70259711 47.4900408 225.32427406 40.3125 227.375 C40.3125 286.775 40.3125 346.175 40.3125 407.375 C43.6125 408.365 46.9125 409.355 50.3125 410.375 C57.26435935 414.70731815 61.69883013 419.53399039 64.3125 427.375 C64.4079687 429.68590417 64.44235387 431.99962975 64.4375 434.3125 C64.44136719 436.15134766 64.44136719 436.15134766 64.4453125 438.02734375 C64.3125 441.375 64.3125 441.375 63.3125 445.375 C72.2225 445.375 81.1325 445.375 90.3125 445.375 C89.9825 444.055 89.6525 442.735 89.3125 441.375 C88.51310933 432.30762581 88.83273282 424.88892318 94.3125 417.375 C99.57606228 411.35767516 105.67405393 409.28461152 113.3125 407.375 C113.3125 347.975 113.3125 288.575 113.3125 227.375 C109.6825 226.055 106.0525 224.735 102.3125 223.375 C95.83188781 220.07355605 91.59822849 214.23218548 89.3125 207.375 C89.21684686 205.08495138 89.18265425 202.7920403 89.1875 200.5 C89.18363281 198.67855469 89.18363281 198.67855469 89.1796875 196.8203125 C89.3125 193.375 89.3125 193.375 90.3125 188.375 C81.4025 188.375 72.4925 188.375 63.3125 188.375 Z " fill="#000001" transform="translate(255.6875,-0.375)"/>
<path d="M0 0 C1.38058594 -0.04253906 1.38058594 -0.04253906 2.7890625 -0.0859375 C13.08477672 1.23747675 21.57868284 5.87238069 30.25 11.3125 C32.46439048 12.67131186 34.67924228 14.0293722 36.89453125 15.38671875 C37.98975098 16.0626709 39.0849707 16.73862305 40.21337891 17.43505859 C44.75506152 20.22179296 49.3427537 22.92698024 53.9375 25.625 C55.72161473 26.67664141 57.50545808 27.72874333 59.2890625 28.78125 C60.23942383 29.34199219 61.18978516 29.90273438 62.16894531 30.48046875 C68.02129347 33.93875551 73.86703105 37.40818161 79.71237183 40.8782959 C81.08364263 41.69232666 82.45499713 42.50621646 83.82644653 43.31994629 C91.60596906 47.93597703 99.37418322 52.57009623 107.12841797 57.22848511 C112.17595497 60.25936675 117.2396143 63.26180591 122.3125 66.25 C134.91133137 73.68387046 147.48762555 81.15554641 160.06422424 88.62693787 C164.98707566 91.55124551 169.9112286 94.47335299 174.8359375 97.39453125 C202.24146722 113.65219447 202.24146722 113.65219447 211.45214844 119.21899414 C215.57438377 121.70918059 219.71655267 124.15610911 223.890625 126.55859375 C224.8074707 127.09234619 225.72431641 127.62609863 226.66894531 128.17602539 C228.417088 129.19283123 230.1712996 130.19930574 231.93261719 131.19311523 C236.77702183 134.0282946 239.79914347 136.33319015 242.375 141.375 C243.0256249 146.57999921 242.285372 150.009442 239.375 154.375 C234.79235939 158.12679299 231.17490645 158.95266843 225.40701294 158.87836456 C224.61848206 158.88417833 223.82995119 158.88999209 223.01752543 158.89598203 C220.3709109 158.91059908 217.7252213 158.8966891 215.07861328 158.88293457 C213.16379891 158.88754281 211.24898807 158.89389521 209.33418465 158.90184355 C204.06889816 158.91857049 198.80390097 158.91027515 193.53861332 158.89789867 C187.86163924 158.8888643 182.18471559 158.9028099 176.50775146 158.91381836 C165.38519316 158.93162539 154.26274268 158.92775385 143.14018011 158.9161678 C134.10241656 158.90714235 125.06468327 158.90590563 116.0269165 158.91026306 C114.74169417 158.91087599 113.45647183 158.91148893 112.13230336 158.91212043 C109.52157894 158.9133993 106.91085453 158.91469616 104.30013013 158.9160108 C80.5052105 158.92709753 56.71035626 158.91559091 32.91544703 158.89464041 C11.19034461 158.87565776 -10.53466403 158.87735626 -32.25976562 158.89648438 C-56.66426159 158.91789973 -81.06869372 158.9263243 -105.47319984 158.91403532 C-108.07443872 158.91276109 -110.67567761 158.91150361 -113.2769165 158.91026306 C-114.55684947 158.90964596 -115.83678243 158.90902886 -117.15550125 158.90839306 C-126.18471463 158.90493616 -135.21389479 158.91077581 -144.24310303 158.92018127 C-155.24339581 158.93138784 -166.24357439 158.92838944 -177.24385405 158.9070583 C-182.85874182 158.89652986 -188.47343904 158.89245667 -194.0883255 158.90565491 C-199.22530778 158.91754737 -204.36192231 158.91106815 -209.49887109 158.8897447 C-211.36015529 158.88526529 -213.22147037 158.88757478 -215.08273482 158.89724785 C-217.60793929 158.90936782 -220.13187526 158.89698216 -222.65701294 158.87836456 C-223.38395206 158.88772923 -224.11089118 158.89709389 -224.85985875 158.90674233 C-229.8963257 158.83224946 -232.73058782 157.51106957 -236.625 154.375 C-239.50366263 150.92060484 -239.9833028 148.00876915 -240.12109375 143.53515625 C-239.0715277 138.96499858 -237.02765578 136.37618738 -233.28100586 133.7019043 C-230.1834697 131.7906472 -227.04314456 129.97932872 -223.875 128.1875 C-222.67124361 127.49280722 -221.46838272 126.79656075 -220.26635742 126.09887695 C-217.70903408 124.6156934 -215.14831924 123.13861527 -212.58544922 121.66503906 C-206.66536109 118.25217727 -200.79974042 114.74761642 -194.92987061 111.24935913 C-191.57374045 109.25010572 -188.21448182 107.25612331 -184.85546875 105.26171875 C-184.18255798 104.86203384 -183.50964722 104.46234894 -182.81634521 104.05055237 C-177.9173165 101.14101082 -173.01566189 98.23592054 -168.11328125 95.33203125 C-150.89271389 85.13729962 -150.89271389 85.13729962 -133.75 74.8125 C-133.03086426 74.37744141 -132.31172852 73.94238281 -131.57080078 73.49414062 C-129.01857538 71.93283972 -126.74883991 70.49883991 -124.625 68.375 C-124.810625 67.158125 -124.99625 65.94125 -125.1875 64.6875 C-125.26953125 62.55859375 -125.26953125 62.55859375 -124.625 60.375 C-121.34536565 57.30695497 -117.83305046 54.96183467 -113.625 53.375 C-111.703125 54.1328125 -111.703125 54.1328125 -109.625 55.375 C-105.55512482 56.37295104 -103.31662957 56.66009361 -99.40063477 55.04589844 C-98.30033936 54.3655957 -97.20004395 53.68529297 -96.06640625 52.984375 C-95.45330597 52.61304947 -94.84020569 52.24172394 -94.20852661 51.85914612 C-92.19040124 50.63164821 -90.1895939 49.37844344 -88.1875 48.125 C-86.76596151 47.25473942 -85.34316742 46.38652685 -83.91918945 45.52026367 C-80.95780021 43.71655409 -78.00202764 41.90411965 -75.04980469 40.08544922 C-68.84552266 36.27285016 -62.5764952 32.57035249 -56.30703735 28.86630249 C-53.00057425 26.91213155 -49.69745423 24.95233422 -46.39453125 22.9921875 C-45.42923744 22.4195945 -45.42923744 22.4195945 -44.44444275 21.83543396 C-40.53970918 19.51749408 -36.64176455 17.18856667 -32.74891663 14.85072327 C-30.25694101 13.35477136 -27.76247065 11.86300979 -25.26773071 10.37167358 C-23.55059743 9.34281653 -21.83712872 8.30785111 -20.1237793 7.27270508 C-19.090354 6.65548584 -18.05692871 6.0382666 -16.9921875 5.40234375 C-15.64809814 4.59398071 -15.64809814 4.59398071 -14.27685547 3.76928711 C-9.59930814 1.3099359 -5.2760899 0.07267341 0 0 Z " fill="#B0BCE9" transform="translate(254.625,14.625)"/>
<path d="M0 0 C0.77096316 -0.00265183 1.54192632 -0.00530365 2.336252 -0.00803584 C4.94089212 -0.01574539 7.54548522 -0.01628864 10.15013599 -0.01688576 C12.02793351 -0.02089928 13.90573016 -0.02533732 15.78352576 -0.03016531 C20.96041984 -0.04214881 26.13730459 -0.04778337 31.31420982 -0.05234647 C36.89105555 -0.05829578 42.46789009 -0.06990725 48.04472828 -0.08063698 C61.52082629 -0.10517551 74.99692802 -0.11978981 88.4730415 -0.13269705 C92.27767752 -0.13640778 96.08231317 -0.1403811 99.88694882 -0.14444971 C123.50083884 -0.16968388 147.11472968 -0.19175844 170.72863007 -0.20417786 C176.20000874 -0.20709921 181.67138738 -0.21006673 187.142766 -0.21308327 C187.82251954 -0.21345418 188.50227307 -0.21382509 189.2026252 -0.21420723 C211.24352203 -0.22636366 233.28433902 -0.25730928 255.32519835 -0.29900479 C278.62412018 -0.34299989 301.92298779 -0.36871122 325.2219575 -0.37409842 C337.92409218 -0.37751561 350.6261009 -0.38930727 363.32819653 -0.42220116 C374.14404895 -0.45016406 384.95974961 -0.46121747 395.77563538 -0.4500057 C401.29561995 -0.44480956 406.81528648 -0.44776808 412.33522511 -0.47247124 C417.38797489 -0.49489521 422.44017693 -0.49427709 427.49293587 -0.47526737 C429.32138231 -0.47245775 431.14986535 -0.47811905 432.97825273 -0.4930803 C449.89220426 -0.62302691 449.89220426 -0.62302691 456.53168201 5.13701439 C460.02542208 8.71809795 461.82670349 12.63257752 462.09418201 17.63701439 C461.71814927 23.68487444 459.4032714 28.31341448 455.09418201 32.51201439 C450.57463599 35.37806796 446.9432795 36.38637251 441.59564686 36.4399929 C439.83890141 36.4649559 439.83890141 36.4649559 438.04666615 36.4904232 C436.16366306 36.50304443 436.16366306 36.50304443 434.24261951 36.51592064 C432.2637294 36.54188235 430.28483934 36.56784877 428.30595303 36.59409809 C425.54170649 36.62843364 422.77740576 36.65405171 420.01306629 36.67961693 C415.16684742 36.72539559 410.32074601 36.78057948 405.4747057 36.8423214 C402.8961316 36.87429333 400.31748855 36.90117873 397.73880482 36.92255211 C396.5739455 36.93604195 395.40908619 36.94953178 394.20892811 36.9634304 C393.1825423 36.97294228 392.1561565 36.98245415 391.0986681 36.99225426 C388.4119928 37.03118198 388.4119928 37.03118198 385.53168201 38.13701439 C384.87168201 40.11701439 384.21168201 42.09701439 383.53168201 44.13701439 C378.91168201 44.13701439 374.29168201 44.13701439 369.53168201 44.13701439 C368.54168201 42.15701439 367.55168201 40.17701439 366.53168201 38.13701439 C363.24796122 37.04244079 360.8484276 37.01215445 357.39084053 37.01231575 C355.45077156 37.00872933 355.45077156 37.00872933 353.47150928 37.00507045 C352.02772497 37.00744913 350.58394079 37.00990913 349.14015675 37.01244164 C347.61296784 37.01145584 346.08577917 37.01001909 344.55859107 37.00816846 C341.23087211 37.00510368 337.90317315 37.00522132 334.57545376 37.00772476 C329.16151493 37.01177731 323.74759182 37.00901897 318.33365345 37.00537682 C311.49282458 37.00128317 304.65199921 36.99904711 297.81116911 36.99896082 C284.3675422 36.99875826 270.92395144 36.98630835 257.48033619 36.96935081 C255.36497858 36.96674498 253.24962096 36.96414617 251.13426334 36.96155429 C247.92813707 36.95761577 244.72201081 36.95366927 241.51588458 36.94969307 C229.42276314 36.93474102 217.3296406 36.92111956 205.236516 36.90898705 C204.13079291 36.90787348 203.02506981 36.90675992 201.88583996 36.90561262 C183.969452 36.8880394 166.05308663 36.88516835 148.13669149 36.88683745 C129.74895728 36.8881162 111.36130721 36.87038789 92.97360533 36.83581948 C81.62852157 36.81515758 70.2836392 36.8098411 58.93854471 36.82414779 C51.16302019 36.83260287 43.38765233 36.82288578 35.6121609 36.79883829 C31.1250575 36.78552232 26.63832978 36.78035696 22.1512289 36.79695892 C18.04211762 36.81199425 13.93371442 36.80399426 9.82466515 36.77778938 C8.33943336 36.77237169 6.85414161 36.77536944 5.36895118 36.78770635 C-2.67017229 36.8495736 -9.36539041 36.89262704 -15.46831799 31.13701439 C-19.43620022 26.04998588 -20.8884247 21.90601806 -20.81597424 15.55107689 C-20.03605248 10.13544045 -16.74550052 6.3229696 -12.84331799 2.69951439 C-8.62988907 -0.07247832 -4.86537813 -0.00807808 0 0 Z " fill="#B0BDEA" transform="translate(35.46831798553467,460.8629856109619)"/>
<path d="M0 0 C1.51098267 0.94794434 1.51098267 0.94794434 3.05249023 1.91503906 C5.26688071 3.27385093 7.48173251 4.63191126 9.69702148 5.98925781 C10.79224121 6.66520996 11.88746094 7.34116211 13.01586914 8.03759766 C17.55755175 10.82433202 22.14524393 13.52951931 26.73999023 16.22753906 C28.52410496 17.27918048 30.30794831 18.33128239 32.09155273 19.38378906 C33.04191406 19.94453125 33.99227539 20.50527344 34.97143555 21.08300781 C40.82378371 24.54129457 46.66952129 28.01072067 52.51486206 31.48083496 C53.88613287 32.29486572 55.25748737 33.10875552 56.62893677 33.92248535 C64.40845929 38.53851609 72.17667345 43.17263529 79.9309082 47.83102417 C84.97844521 50.86190582 90.04210453 53.86434497 95.11499023 56.85253906 C107.7138216 64.28640952 120.29011579 71.75808547 132.86671448 79.22947693 C137.7895659 82.15378458 142.71371884 85.07589205 147.63842773 87.99707031 C175.04395745 104.25473353 175.04395745 104.25473353 184.25463867 109.8215332 C188.37687401 112.31171965 192.51904291 114.75864817 196.69311523 117.16113281 C197.60996094 117.69488525 198.52680664 118.2286377 199.47143555 118.77856445 C201.21957823 119.79537029 202.97378983 120.8018448 204.73510742 121.7956543 C209.57951206 124.63083367 212.60163371 126.93572922 215.17749023 131.97753906 C215.82811514 137.18253828 215.08786223 140.61198106 212.17749023 144.97753906 C207.58885138 148.73696973 203.96849908 149.5530236 198.1927433 149.46973038 C197.40241485 149.47434575 196.61208639 149.47896113 195.79780859 149.48371637 C193.14510946 149.49431818 190.49337827 149.47634893 187.84072876 149.45855713 C185.92164075 149.46030125 184.00255366 149.46380322 182.08347166 149.46891379 C176.80657576 149.4778689 171.53000387 149.46184263 166.25314927 149.44180155 C160.56404006 149.42454874 154.87494954 149.43037172 149.18582153 149.43341064 C139.32790412 149.43550938 129.4700925 149.42294544 119.61220169 149.40045929 C105.35931391 149.36796916 91.10647736 149.35753532 76.85355656 149.35250732 C53.72989595 149.34374999 30.60629549 149.31715683 7.48266602 149.27929688 C-14.98152371 149.24255907 -37.44569836 149.21422466 -59.90991211 149.19726562 C-60.6023649 149.19673952 -61.29481768 149.19621342 -62.00825389 149.19567137 C-68.96215362 149.19039729 -75.91605347 149.18529403 -82.86995342 149.18031593 C-141.18751007 149.13855205 -199.50500891 149.06796735 -257.82250977 148.97753906 C-257.82250977 148.64753906 -257.82250977 148.31753906 -257.82250977 147.97753906 C-48.43750977 147.48253906 -48.43750977 147.48253906 165.17749023 146.97753906 C167.66758519 140.75230167 167.83045926 135.6076861 167.17749023 128.97753906 C163.46860079 120.47800075 153.3991833 115.75400694 145.67749023 111.29003906 C143.73446946 110.15385446 141.79178233 109.01709916 139.84936523 107.87988281 C138.79168945 107.26226074 137.73401367 106.64463867 136.64428711 106.00830078 C130.0540581 102.15354437 123.49244351 98.25012078 116.92749023 94.35253906 C116.24001709 93.94463135 115.55254395 93.53672363 114.84423828 93.11645508 C104.23661076 86.82103423 93.67045319 80.46277311 83.17749023 73.97753906 C82.34217773 74.93853516 82.34217773 74.93853516 81.48999023 75.91894531 C76.68203933 81.36849778 71.77835336 86.35124961 66.17749023 90.97753906 C65.57291992 91.48542969 64.96834961 91.99332031 64.34545898 92.51660156 C62.96162131 93.67682144 61.57047951 94.82832291 60.17749023 95.97753906 C62.85698521 99.410642 65.55115687 102.39767324 68.86499023 105.22753906 C72.18323091 108.09531112 75.47125378 110.98444704 78.67749023 113.97753906 C79.53342773 114.76128906 80.38936523 115.54503906 81.27124023 116.35253906 C83.74985974 119.76572003 83.64597851 121.84808059 83.17749023 125.97753906 C81.09891285 129.22011978 79.71485955 129.84056257 75.98999023 130.79003906 C70.90021142 129.7053321 68.92393292 127.20069504 65.46655273 123.44628906 C62.27626973 120.00557429 58.75285705 117.00734582 55.17749023 113.97753906 C55.15170898 114.79738281 55.12592773 115.61722656 55.09936523 116.46191406 C55.04264648 117.53957031 54.98592773 118.61722656 54.92749023 119.72753906 C54.88108398 120.79488281 54.83467773 121.86222656 54.78686523 122.96191406 C54.05979032 126.56000276 53.07695465 127.78208129 50.17749023 129.97753906 C46.67749023 130.54003906 46.67749023 130.54003906 43.17749023 129.97753906 C40.43951286 127.76807207 39.31572525 125.92509876 38.80615234 122.43212891 C38.64617203 119.15934299 38.62339964 115.91044845 38.64624023 112.63378906 C38.64241333 111.4319397 38.63858643 110.23009033 38.63464355 108.99182129 C38.63192422 106.45336061 38.63928678 103.91487192 38.65600586 101.37646484 C38.67741302 97.49155183 38.65620263 93.60848832 38.63061523 89.72363281 C38.6332585 87.25618081 38.63838346 84.78872997 38.64624023 82.32128906 C38.63814331 81.1597229 38.63004639 79.99815674 38.6217041 78.8013916 C38.71468427 70.80301751 38.71468427 70.80301751 40.99194336 66.74121094 C43.17749023 64.97753906 43.17749023 64.97753906 46.67749023 64.41503906 C50.17749023 64.97753906 50.17749023 64.97753906 52.55249023 66.29003906 C55.12333213 70.54181604 55.00901464 75.09174677 55.17749023 79.97753906 C55.86456055 79.27886719 56.55163086 78.58019531 57.25952148 77.86035156 C58.16057617 76.95027344 59.06163086 76.04019531 59.98999023 75.10253906 C61.3299707 73.74515625 61.3299707 73.74515625 62.69702148 72.36035156 C65.17749023 69.97753906 65.17749023 69.97753906 68.17749023 67.97753906 C68.17749023 66.98753906 68.17749023 65.99753906 68.17749023 64.97753906 C67.3125293 64.501875 66.44756836 64.02621094 65.55639648 63.53613281 C55.43709794 57.92604421 45.50792446 52.02238558 35.609375 46.03198242 C34.57482178 45.40686768 33.54026855 44.78175293 32.47436523 44.13769531 C31.54978516 43.57703369 30.62520508 43.01637207 29.67260742 42.4387207 C27.54053014 41.1901412 25.40310663 40.04769721 23.17749023 38.97753906 C23.25999023 39.86441406 23.34249023 40.75128906 23.42749023 41.66503906 C23.11513052 45.80380525 22.29649373 47.25840781 19.17749023 49.97753906 C13.48107444 50.60215172 10.27683438 49.35886982 5.43139648 46.43457031 C4.8165892 46.06909592 4.20178192 45.70362152 3.56834412 45.32707214 C1.61664415 44.16221241 -0.32147297 42.97664684 -2.26000977 41.79003906 C-3.55670367 41.01195789 -4.85422406 40.23525234 -6.15258789 39.45996094 C-11.32912566 36.35618673 -16.45293232 33.2355926 -21.42016602 29.80175781 C-24.56305476 27.6061406 -24.56305476 27.6061406 -27.16674805 28.65722656 C-30.08008917 30.10559472 -32.90119258 31.64771477 -35.71704102 33.27832031 C-36.83788086 33.92607422 -37.9587207 34.57382812 -39.11352539 35.24121094 C-39.69271729 35.57822021 -40.27190918 35.91522949 -40.86865234 36.26245117 C-42.61747132 37.27983598 -44.36911723 38.29219838 -46.12133789 39.30371094 C-50.9417818 42.09652973 -55.73612945 44.89372512 -60.41235352 47.92285156 C-64.31917313 50.2767887 -66.34286314 50.75286252 -70.82250977 49.97753906 C-73.26000977 48.35253906 -73.26000977 48.35253906 -74.82250977 45.97753906 C-75.38500977 43.04003906 -75.38500977 43.04003906 -74.82250977 39.97753906 C-70.44364547 34.51572983 -64.33602492 31.56209912 -58.32250977 28.16503906 C-56.15231874 26.92576368 -53.98303944 25.68489027 -51.81469727 24.44238281 C-50.2576709 23.55075439 -50.2576709 23.55075439 -48.66918945 22.64111328 C-44.26875721 20.06953993 -40.0167296 17.29220149 -35.79907227 14.43066406 C-32.82250977 12.97753906 -32.82250977 12.97753906 -22.82250977 10.97753906 C-30.41250977 6.68753906 -38.00250977 2.39753906 -45.82250977 -2.02246094 C-30.9685304 -13.90564443 -15.10331059 -9.23791091 0 0 Z " fill="#97A6E1" transform="translate(281.822509765625,24.0224609375)"/>
<path d="M0 0 C16.5 0 33 0 50 0 C50 60.06 50 120.12 50 182 C33.5 182 17 182 0 182 C0 121.94 0 61.88 0 0 Z " fill="#C0C8E5" transform="translate(384,226)"/>
<path d="M0 0 C16.5 0 33 0 50 0 C50 59.73 50 119.46 50 181 C33.5 181 17 181 0 181 C0 121.27 0 61.54 0 0 Z " fill="#D7DCEF" transform="translate(231,226)"/>
<path d="M0 0 C16.5 0 33 0 50 0 C50 59.73 50 119.46 50 181 C33.5 181 17 181 0 181 C0 121.27 0 61.54 0 0 Z " fill="#D7DCEF" transform="translate(78,226)"/>
<path d="M0 0 C5.28 0 10.56 0 16 0 C16 59.4 16 118.8 16 180 C10.72 180 5.44 180 0 180 C0 120.6 0 61.2 0 0 Z " fill="#DDE2F6" transform="translate(385,227)"/>
<path d="M0 0 C8.65899494 1.90791414 13.92487608 13.29814675 18.5625 20.25 C19.89243197 22.22840071 21.22311872 24.20629433 22.5546875 26.18359375 C23.42262939 27.4818811 23.42262939 27.4818811 24.30810547 28.80639648 C25.53412714 30.71980155 25.53412714 30.71980155 26.6875 31.8125 C26.6968457 31.05106689 26.70619141 30.28963379 26.71582031 29.50512695 C26.76960937 26.0444338 26.85324184 22.58507982 26.9375 19.125 C26.95167969 17.92681641 26.96585937 16.72863281 26.98046875 15.49414062 C27.01269531 14.33720703 27.04492188 13.18027344 27.078125 11.98828125 C27.09907227 10.92520752 27.12001953 9.86213379 27.14160156 8.7668457 C27.81720063 5.11057366 29.05614827 3.40584856 31.6875 0.8125 C35.1875 0.25 35.1875 0.25 38.6875 0.8125 C41.05247439 2.67958505 42.34780715 4.13311431 43.6875 6.8125 C43.79815314 8.48085563 43.84665111 10.15351362 43.86450195 11.82543945 C43.88375481 13.39265495 43.88375481 13.39265495 43.90339661 14.99153137 C43.91078354 16.12483383 43.91817047 17.25813629 43.92578125 18.42578125 C43.933853 19.58748337 43.94192474 20.74918549 43.95024109 21.9460907 C43.96409026 24.4082998 43.97480867 26.87052816 43.98266602 29.33276367 C43.99988191 33.0991654 44.04376257 36.86469032 44.08789062 40.63085938 C44.09801697 43.02082687 44.10653325 45.41080183 44.11328125 47.80078125 C44.13078934 48.92801102 44.14829742 50.05524078 44.16633606 51.21662903 C44.14471264 59.00891228 44.14471264 59.00891228 41.87573242 62.99682617 C38.78733558 65.55940648 36.67287316 65.88241883 32.6875 65.8125 C28.96616551 63.28986985 26.54357542 60.53650383 24.05859375 56.8203125 C23.41599609 55.86769531 22.77339844 54.91507813 22.11132812 53.93359375 C21.1280957 52.45052734 21.1280957 52.45052734 20.125 50.9375 C19.46564453 49.95652344 18.80628906 48.97554687 18.12695312 47.96484375 C16.30593936 45.25253983 14.4948512 42.53392 12.6875 39.8125 C11.86611757 38.58057435 11.04455439 37.34876915 10.22265625 36.1171875 C9.71605469 35.35664062 9.20945312 34.59609375 8.6875 33.8125 C8.6781543 34.63975586 8.66880859 35.46701172 8.65917969 36.31933594 C8.60549681 40.06766415 8.5218429 43.81474162 8.4375 47.5625 C8.41623047 49.51542969 8.41623047 49.51542969 8.39453125 51.5078125 C8.36230469 52.75820312 8.33007812 54.00859375 8.296875 55.296875 C8.27592773 56.44897461 8.25498047 57.60107422 8.23339844 58.78808594 C7.57721887 62.4234851 6.62003971 63.62327309 3.6875 65.8125 C0.1875 66.375 0.1875 66.375 -3.3125 65.8125 C-6.05047737 63.603033 -7.17426498 61.7600597 -7.68383789 58.26708984 C-7.8438182 54.99430393 -7.86659059 51.74540939 -7.84375 48.46875 C-7.8475769 47.26690063 -7.85140381 46.06505127 -7.85534668 44.82678223 C-7.85806602 42.28832155 -7.85070346 39.74983286 -7.83398438 37.21142578 C-7.81257721 33.32651276 -7.8337876 29.44344926 -7.859375 25.55859375 C-7.85673173 23.09114175 -7.85160678 20.6236909 -7.84375 18.15625 C-7.85184692 16.99468384 -7.85994385 15.83311768 -7.86828613 14.63635254 C-7.7751961 6.62852766 -7.7751961 6.62852766 -5.48632812 2.59179688 C-3.3125 0.8125 -3.3125 0.8125 0 0 Z " fill="#050506" transform="translate(266.3125,88.1875)"/>
<path d="M0 0 C1.22493164 -0.03577148 1.22493164 -0.03577148 2.47460938 -0.07226562 C8.67212083 -0.05745086 12.93255643 1.5596697 17.6875 5.5625 C22.08972174 10.54558954 23.875 14.7798225 23.875 21.453125 C23.6875 23.5625 23.6875 23.5625 22.375 27.0625 C21.59127229 31.05238651 21.91373092 31.54599869 24 34.8125 C24.47050781 35.45703125 24.94101563 36.1015625 25.42578125 36.765625 C28.3673206 40.95481417 28.35050802 45.65774748 27.6875 50.5625 C25.45330036 57.06286534 22.44769667 61.80073891 16.6875 65.5625 C11.34909679 67.85736236 6.33842052 67.92914094 0.625 67.9375 C-0.25994141 67.96199219 -1.14488281 67.98648438 -2.05664062 68.01171875 C-2.91580078 68.01558594 -3.77496094 68.01945312 -4.66015625 68.0234375 C-5.43367432 68.03165527 -6.20719238 68.03987305 -7.00415039 68.04833984 C-10.30211915 67.35421421 -11.91124464 65.9000063 -14.3125 63.5625 C-14.94741821 60.86853027 -14.94741821 60.86853027 -14.95947266 57.75585938 C-14.97523346 56.5878479 -14.99099426 55.41983643 -15.00723267 54.21643066 C-14.99711151 52.95907104 -14.98699036 51.70171143 -14.9765625 50.40625 C-14.98134613 49.11182983 -14.98612976 47.81740967 -14.99105835 46.48376465 C-14.99842139 43.74652209 -14.98774487 41.01009661 -14.96435547 38.27294922 C-14.93586518 34.76854166 -14.95227261 31.26604846 -14.98221779 27.76171112 C-15.00465604 24.4139049 -14.98893478 21.06661059 -14.9765625 17.71875 C-14.99174423 15.83271057 -14.99174423 15.83271057 -15.00723267 13.90856934 C-14.99147186 12.74055786 -14.97571106 11.57254639 -14.95947266 10.36914062 C-14.95549469 9.34195923 -14.95151672 8.31477783 -14.94741821 7.25646973 C-13.18039171 -0.24105642 -6.30126056 -0.08336298 0 0 Z " fill="#030304" transform="translate(161.3125,87.4375)"/>
<path d="M0 0 C0.79088516 -0.00686325 1.58177032 -0.0137265 2.3966217 -0.02079773 C5.00296132 -0.03905281 7.60869824 -0.03523013 10.21508789 -0.02954102 C12.03203018 -0.03410351 13.84897075 -0.03940929 15.66590881 -0.04542542 C19.47135434 -0.05435402 23.27658997 -0.05193633 27.08203125 -0.04199219 C31.95232751 -0.03050396 36.82189857 -0.05071287 41.69209957 -0.07990932 C45.4436959 -0.09827903 49.1951187 -0.09797732 52.94674873 -0.0922718 C54.74205098 -0.09211868 56.53736506 -0.09815589 58.33262444 -0.11056328 C60.8459067 -0.12548599 63.35785254 -0.11478767 65.87109375 -0.09765625 C66.60842743 -0.10732422 67.34576111 -0.11699219 68.10543823 -0.12695312 C73.19805701 -0.05447446 76.06973883 1.21477401 80.00024414 4.40405273 C82.16354474 7.14423349 82.92376862 8.89057424 83.43774414 12.34155273 C82.75880061 17.09415743 80.6445675 20.13588408 76.86143494 23.05358887 C73.18447412 24.789091 69.89231869 24.83956736 65.90869141 24.82397461 C65.10805267 24.83244415 64.30741394 24.8409137 63.48251343 24.84963989 C60.84372952 24.87298204 58.20552961 24.87403277 55.56665039 24.87280273 C53.72728747 24.87990578 51.88792677 24.88760499 50.04856873 24.89587402 C46.19605345 24.90931226 42.34374308 24.91089046 38.49121094 24.9050293 C33.56026242 24.89913249 28.63029826 24.92972676 23.69954014 24.97014618 C19.90161362 24.99602579 16.10392409 24.99890039 12.30592155 24.99525452 C10.48827578 24.99694539 8.67061903 25.00658479 6.85305977 25.0243988 C4.30843785 25.04659559 1.76580792 25.03688465 -0.77880859 25.01928711 C-1.52549301 25.03255035 -2.27217743 25.0458136 -3.04148865 25.05947876 C-8.79595248 24.96725554 -11.09565727 23.32410892 -14.99975586 19.40405273 C-17.31181158 16.14615603 -17.47224943 13.34149916 -16.99975586 9.40405273 C-12.94574035 1.74646789 -8.36389185 -0.05092432 0 0 Z " fill="#7E94DF" transform="translate(375.999755859375,421.595947265625)"/>
<path d="M0 0 C0.79088516 -0.00686325 1.58177032 -0.0137265 2.3966217 -0.02079773 C5.00296132 -0.03905281 7.60869824 -0.03523013 10.21508789 -0.02954102 C12.03203018 -0.03410351 13.84897075 -0.03940929 15.66590881 -0.04542542 C19.47135434 -0.05435402 23.27658997 -0.05193633 27.08203125 -0.04199219 C31.95232751 -0.03050396 36.82189857 -0.05071287 41.69209957 -0.07990932 C45.4436959 -0.09827903 49.1951187 -0.09797732 52.94674873 -0.0922718 C54.74205098 -0.09211868 56.53736506 -0.09815589 58.33262444 -0.11056328 C60.8459067 -0.12548599 63.35785254 -0.11478767 65.87109375 -0.09765625 C66.60842743 -0.10732422 67.34576111 -0.11699219 68.10543823 -0.12695312 C73.19805701 -0.05447446 76.06973883 1.21477401 80.00024414 4.40405273 C82.16354474 7.14423349 82.92376862 8.89057424 83.43774414 12.34155273 C82.75880061 17.09415743 80.6445675 20.13588408 76.86143494 23.05358887 C73.18447412 24.789091 69.89231869 24.83956736 65.90869141 24.82397461 C65.10805267 24.83244415 64.30741394 24.8409137 63.48251343 24.84963989 C60.84372952 24.87298204 58.20552961 24.87403277 55.56665039 24.87280273 C53.72728747 24.87990578 51.88792677 24.88760499 50.04856873 24.89587402 C46.19605345 24.90931226 42.34374308 24.91089046 38.49121094 24.9050293 C33.56026242 24.89913249 28.63029826 24.92972676 23.69954014 24.97014618 C19.90161362 24.99602579 16.10392409 24.99890039 12.30592155 24.99525452 C10.48827578 24.99694539 8.67061903 25.00658479 6.85305977 25.0243988 C4.30843785 25.04659559 1.76580792 25.03688465 -0.77880859 25.01928711 C-1.52549301 25.03255035 -2.27217743 25.0458136 -3.04148865 25.05947876 C-8.79595248 24.96725554 -11.09565727 23.32410892 -14.99975586 19.40405273 C-17.31181158 16.14615603 -17.47224943 13.34149916 -16.99975586 9.40405273 C-12.94574035 1.74646789 -8.36389185 -0.05092432 0 0 Z " fill="#7B91DA" transform="translate(222.999755859375,421.595947265625)"/>
<path d="M0 0 C0.79088516 -0.00686325 1.58177032 -0.0137265 2.3966217 -0.02079773 C5.00296132 -0.03905281 7.60869824 -0.03523013 10.21508789 -0.02954102 C12.03203018 -0.03410351 13.84897075 -0.03940929 15.66590881 -0.04542542 C19.47135434 -0.05435402 23.27658997 -0.05193633 27.08203125 -0.04199219 C31.95232751 -0.03050396 36.82189857 -0.05071287 41.69209957 -0.07990932 C45.4436959 -0.09827903 49.1951187 -0.09797732 52.94674873 -0.0922718 C54.74205098 -0.09211868 56.53736506 -0.09815589 58.33262444 -0.11056328 C60.8459067 -0.12548599 63.35785254 -0.11478767 65.87109375 -0.09765625 C66.60842743 -0.10732422 67.34576111 -0.11699219 68.10543823 -0.12695312 C73.19805701 -0.05447446 76.06973883 1.21477401 80.00024414 4.40405273 C82.16354474 7.14423349 82.92376862 8.89057424 83.43774414 12.34155273 C82.75880061 17.09415743 80.6445675 20.13588408 76.86143494 23.05358887 C73.18447412 24.789091 69.89231869 24.83956736 65.90869141 24.82397461 C65.10805267 24.83244415 64.30741394 24.8409137 63.48251343 24.84963989 C60.84372952 24.87298204 58.20552961 24.87403277 55.56665039 24.87280273 C53.72728747 24.87990578 51.88792677 24.88760499 50.04856873 24.89587402 C46.19605345 24.90931226 42.34374308 24.91089046 38.49121094 24.9050293 C33.56026242 24.89913249 28.63029826 24.92972676 23.69954014 24.97014618 C19.90161362 24.99602579 16.10392409 24.99890039 12.30592155 24.99525452 C10.48827578 24.99694539 8.67061903 25.00658479 6.85305977 25.0243988 C4.30843785 25.04659559 1.76580792 25.03688465 -0.77880859 25.01928711 C-1.52549301 25.03255035 -2.27217743 25.0458136 -3.04148865 25.05947876 C-8.79595248 24.96725554 -11.09565727 23.32410892 -14.99975586 19.40405273 C-17.31181158 16.14615603 -17.47224943 13.34149916 -16.99975586 9.40405273 C-12.94574035 1.74646789 -8.36389185 -0.05092432 0 0 Z " fill="#7B91DA" transform="translate(69.999755859375,421.595947265625)"/>
<path d="M0 0 C0.80063873 -0.00525696 1.60127747 -0.01051392 2.42617798 -0.01593018 C5.0649992 -0.02910178 7.70321396 -0.02040147 10.34204102 -0.01025391 C12.18140274 -0.01227566 14.02076369 -0.01518795 15.86012268 -0.01895142 C19.71265301 -0.02337109 23.56497445 -0.01695594 27.41748047 -0.00292969 C32.34820687 0.01414994 37.27844291 0.00432652 42.20915127 -0.01364708 C46.00706148 -0.02450483 49.8048561 -0.02102923 53.60276985 -0.0132637 C55.42039104 -0.01126658 57.23802282 -0.01370381 59.05563164 -0.02070236 C61.5998691 -0.02834831 64.14332083 -0.01666848 66.6875 0 C67.80752663 -0.00910904 67.80752663 -0.00910904 68.95018005 -0.0184021 C73.66926249 0.038677 76.89849564 0.8985187 80.90844727 3.38818359 C83.3162205 6.27751147 83.86960126 8.08296495 84.34594727 11.82568359 C83.82451453 16.07163586 82.63927685 18.12635937 79.90844727 21.38818359 C76.18988634 24.0120301 72.10357454 23.68384081 67.73095703 23.67871094 C66.49854782 23.68878677 66.49854782 23.68878677 65.24124146 23.69906616 C62.52738384 23.71805204 59.81377339 23.72197047 57.09985352 23.72412109 C55.21182656 23.73054799 53.32380061 23.73727626 51.43577576 23.74429321 C47.47897024 23.756267 43.52225204 23.75997387 39.56542969 23.75878906 C34.49663127 23.75858572 29.4283926 23.78590269 24.35972691 23.82033348 C20.46064178 23.84257492 16.56169204 23.84662747 12.66254997 23.84556961 C10.79384365 23.84792915 8.92513379 23.85677254 7.05648994 23.87223434 C4.44237195 23.89184128 1.8294698 23.88607782 -0.78466797 23.87402344 C-1.55522018 23.88526245 -2.3257724 23.89650146 -3.11967468 23.90808105 C-8.07623198 23.85003179 -10.60269333 22.91097906 -14.09155273 19.38818359 C-16.61169018 15.90799379 -16.45949168 12.58268756 -16.09155273 8.38818359 C-12.90296372 1.00408271 -7.47664032 -0.0606422 0 0 Z " fill="#7E94DE" transform="translate(375.091552734375,187.61181640625)"/>
<path d="M0 0 C0.80063873 -0.00525696 1.60127747 -0.01051392 2.42617798 -0.01593018 C5.0649992 -0.02910178 7.70321396 -0.02040147 10.34204102 -0.01025391 C12.18140274 -0.01227566 14.02076369 -0.01518795 15.86012268 -0.01895142 C19.71265301 -0.02337109 23.56497445 -0.01695594 27.41748047 -0.00292969 C32.34820687 0.01414994 37.27844291 0.00432652 42.20915127 -0.01364708 C46.00706148 -0.02450483 49.8048561 -0.02102923 53.60276985 -0.0132637 C55.42039104 -0.01126658 57.23802282 -0.01370381 59.05563164 -0.02070236 C61.5998691 -0.02834831 64.14332083 -0.01666848 66.6875 0 C67.80752663 -0.00910904 67.80752663 -0.00910904 68.95018005 -0.0184021 C73.66926249 0.038677 76.89849564 0.8985187 80.90844727 3.38818359 C83.3162205 6.27751147 83.86960126 8.08296495 84.34594727 11.82568359 C83.82451453 16.07163586 82.63927685 18.12635937 79.90844727 21.38818359 C76.18988634 24.0120301 72.10357454 23.68384081 67.73095703 23.67871094 C66.49854782 23.68878677 66.49854782 23.68878677 65.24124146 23.69906616 C62.52738384 23.71805204 59.81377339 23.72197047 57.09985352 23.72412109 C55.21182656 23.73054799 53.32380061 23.73727626 51.43577576 23.74429321 C47.47897024 23.756267 43.52225204 23.75997387 39.56542969 23.75878906 C34.49663127 23.75858572 29.4283926 23.78590269 24.35972691 23.82033348 C20.46064178 23.84257492 16.56169204 23.84662747 12.66254997 23.84556961 C10.79384365 23.84792915 8.92513379 23.85677254 7.05648994 23.87223434 C4.44237195 23.89184128 1.8294698 23.88607782 -0.78466797 23.87402344 C-1.55522018 23.88526245 -2.3257724 23.89650146 -3.11967468 23.90808105 C-8.07623198 23.85003179 -10.60269333 22.91097906 -14.09155273 19.38818359 C-16.61169018 15.90799379 -16.45949168 12.58268756 -16.09155273 8.38818359 C-12.90296372 1.00408271 -7.47664032 -0.0606422 0 0 Z " fill="#7E94DE" transform="translate(222.091552734375,187.61181640625)"/>
<path d="M0 0 C0.80063873 -0.00525696 1.60127747 -0.01051392 2.42617798 -0.01593018 C5.0649992 -0.02910178 7.70321396 -0.02040147 10.34204102 -0.01025391 C12.18140274 -0.01227566 14.02076369 -0.01518795 15.86012268 -0.01895142 C19.71265301 -0.02337109 23.56497445 -0.01695594 27.41748047 -0.00292969 C32.34820687 0.01414994 37.27844291 0.00432652 42.20915127 -0.01364708 C46.00706148 -0.02450483 49.8048561 -0.02102923 53.60276985 -0.0132637 C55.42039104 -0.01126658 57.23802282 -0.01370381 59.05563164 -0.02070236 C61.5998691 -0.02834831 64.14332083 -0.01666848 66.6875 0 C67.80752663 -0.00910904 67.80752663 -0.00910904 68.95018005 -0.0184021 C73.66926249 0.038677 76.89849564 0.8985187 80.90844727 3.38818359 C83.3162205 6.27751147 83.86960126 8.08296495 84.34594727 11.82568359 C83.82451453 16.07163586 82.63927685 18.12635937 79.90844727 21.38818359 C76.18988634 24.0120301 72.10357454 23.68384081 67.73095703 23.67871094 C66.49854782 23.68878677 66.49854782 23.68878677 65.24124146 23.69906616 C62.52738384 23.71805204 59.81377339 23.72197047 57.09985352 23.72412109 C55.21182656 23.73054799 53.32380061 23.73727626 51.43577576 23.74429321 C47.47897024 23.756267 43.52225204 23.75997387 39.56542969 23.75878906 C34.49663127 23.75858572 29.4283926 23.78590269 24.35972691 23.82033348 C20.46064178 23.84257492 16.56169204 23.84662747 12.66254997 23.84556961 C10.79384365 23.84792915 8.92513379 23.85677254 7.05648994 23.87223434 C4.44237195 23.89184128 1.8294698 23.88607782 -0.78466797 23.87402344 C-1.55522018 23.88526245 -2.3257724 23.89650146 -3.11967468 23.90808105 C-8.07623198 23.85003179 -10.60269333 22.91097906 -14.09155273 19.38818359 C-16.61169018 15.90799379 -16.45949168 12.58268756 -16.09155273 8.38818359 C-12.90296372 1.00408271 -7.47664032 -0.0606422 0 0 Z " fill="#7E94DE" transform="translate(69.091552734375,187.61181640625)"/>
<path d="M0 0 C4.23486556 0.75622599 6.05961737 2.23279487 8.5 5.625 C10.32743044 9.25192141 11.75235496 13.00535707 13.1796875 16.8046875 C13.59670929 17.89081329 14.01373108 18.97693909 14.44338989 20.09597778 C15.31894133 22.38807964 16.18760583 24.68282258 17.04980469 26.97998047 C18.37081355 30.48887984 19.72288258 33.98467107 21.078125 37.48046875 C21.92638258 39.71281933 22.77279932 41.94587045 23.6171875 44.1796875 C24.02226532 45.22156219 24.42734314 46.26343689 24.84469604 47.33688354 C26.91488056 52.93022145 28.12796741 56.80636094 26.5 62.625 C25.375 64.5625 25.375 64.5625 23.5 65.625 C20.0625 66.125 20.0625 66.125 16.5 65.625 C12.37434538 61.94536209 12.10747961 59.25117865 10.5 53.625 C3.57 53.625 -3.36 53.625 -10.5 53.625 C-11.49 56.595 -12.48 59.565 -13.5 62.625 C-16.5 65.625 -16.5 65.625 -19.9375 66.125 C-23.5 65.625 -23.5 65.625 -26 63.625 C-28.30649028 59.01201944 -27.1912108 54.89387197 -25.74035645 50.13150024 C-24.7547075 47.31367749 -23.71072228 44.52512659 -22.640625 41.73828125 C-22.25436951 40.71824509 -21.86811401 39.69820892 -21.47015381 38.64726257 C-20.6542748 36.50162153 -19.8337312 34.35774902 -19.00878906 32.21557617 C-17.75226217 28.94339103 -16.5199857 25.66274819 -15.2890625 22.38085938 C-14.49103968 20.29110994 -13.69160792 18.20189789 -12.890625 16.11328125 C-12.52584045 15.13611649 -12.16105591 14.15895172 -11.78521729 13.1521759 C-7.15402412 1.27750431 -7.15402412 1.27750431 0 0 Z " fill="#020203" transform="translate(223.5,88.375)"/>
<path d="M0 0 C3.5 0.5625 3.5 0.5625 5.875 1.875 C8.4458419 6.12677698 8.3315244 10.67670771 8.5 15.5625 C9.14066406 14.89863281 9.78132813 14.23476562 10.44140625 13.55078125 C20.35180373 3.43360946 20.35180373 3.43360946 25.5 0.5625 C28.80118055 0.5625 30.56978311 1.00436986 33.375 2.6875 C35.30251127 5.90001879 35.10333065 7.88218304 34.5 11.5625 C30.6515853 17.49838812 24.89197554 22.07463349 19.5 26.5625 C18.89285156 27.07296875 18.28570312 27.5834375 17.66015625 28.109375 C16.2786116 29.26662181 14.89016057 30.41561753 13.5 31.5625 C16.17949498 34.99560294 18.87366663 37.98263418 22.1875 40.8125 C25.50574068 43.68027206 28.79376355 46.56940798 32 49.5625 C32.8559375 50.34625 33.711875 51.13 34.59375 51.9375 C37.07236951 55.35068096 36.96848827 57.43304152 36.5 61.5625 C34.42142262 64.80508071 33.03736931 65.42552351 29.3125 66.375 C24.22272118 65.29029304 22.24644268 62.78565597 18.7890625 59.03125 C15.59877949 55.59053522 12.07536682 52.59230676 8.5 49.5625 C8.46132813 50.79226562 8.46132813 50.79226562 8.421875 52.046875 C8.36515625 53.12453125 8.3084375 54.2021875 8.25 55.3125 C8.18039062 56.91351563 8.18039062 56.91351563 8.109375 58.546875 C7.38230008 62.1449637 6.39946442 63.36704223 3.5 65.5625 C0 66.125 0 66.125 -3.5 65.5625 C-6.23797737 63.353033 -7.36176498 61.5100597 -7.87133789 58.01708984 C-8.0313182 54.74430393 -8.05409059 51.49540939 -8.03125 48.21875 C-8.0350769 47.01690063 -8.03890381 45.81505127 -8.04284668 44.57678223 C-8.04556602 42.03832155 -8.03820346 39.49983286 -8.02148438 36.96142578 C-8.00007721 33.07651276 -8.0212876 29.19344926 -8.046875 25.30859375 C-8.04423173 22.84114175 -8.03910678 20.3736909 -8.03125 17.90625 C-8.03934692 16.74468384 -8.04744385 15.58311768 -8.05578613 14.38635254 C-7.96280596 6.38797845 -7.96280596 6.38797845 -5.68554688 2.32617188 C-3.5 0.5625 -3.5 0.5625 0 0 Z " fill="#030304" transform="translate(328.5,88.4375)"/>
<path d="M0 0 C1.0209375 -0.01160156 1.0209375 -0.01160156 2.0625 -0.0234375 C4.61307532 0.50107597 5.39250824 1.34263753 7 3.375 C7.38031673 5.56299591 7.38031673 5.56299591 7.38768005 8.15734863 C7.402537 9.63371544 7.402537 9.63371544 7.41769409 11.13990784 C7.41319244 12.21844528 7.4086908 13.29698273 7.40405273 14.40820312 C7.41091599 15.54499008 7.41777924 16.68177704 7.42485046 17.85301208 C7.44319279 21.62088412 7.43927054 25.38834278 7.43359375 29.15625 C7.43815168 31.76794573 7.44345608 34.37964025 7.44947815 36.99133301 C7.45951307 42.46903457 7.45620206 47.94661812 7.44604492 53.42431641 C7.43455898 59.75866212 7.44864547 66.09258468 7.4754414 72.42687464 C7.50024748 78.51859668 7.50278055 84.61012311 7.49632454 90.70188904 C7.49617076 93.2951274 7.50226155 95.8883737 7.51461601 98.48158264 C7.52943385 102.10197777 7.51891606 105.72143193 7.50170898 109.34179688 C7.51137695 110.42033432 7.52104492 111.49887177 7.53100586 112.61009216 C7.52117172 113.5943367 7.51133759 114.57858124 7.50120544 115.59265137 C7.50099616 116.44878777 7.50078688 117.30492416 7.50057125 118.18700409 C7 120.375 7 120.375 5.19133091 122.15045929 C2.00220513 123.93257916 -0.41567157 123.76601765 -4 123.375 C-6.20645169 121.77722644 -6.91100227 120.89080023 -7.37752342 118.18700409 C-7.3786545 117.33086769 -7.37978558 116.47473129 -7.38095093 115.59265137 C-7.3894104 114.60840683 -7.39786987 113.62416229 -7.40658569 112.61009216 C-7.400513 111.53155472 -7.39444031 110.45301727 -7.38818359 109.34179688 C-7.39344055 108.20500992 -7.39869751 107.06822296 -7.40411377 105.89698792 C-7.41734694 102.12910329 -7.40856361 98.36163912 -7.3984375 94.59375 C-7.40045727 91.98205484 -7.4033679 89.37036022 -7.40713501 86.75866699 C-7.41259399 81.28095928 -7.4053973 75.80337289 -7.39111328 70.32568359 C-7.37478636 63.99139862 -7.38007478 57.65740332 -7.3965925 51.32312536 C-7.4118423 45.23141477 -7.41023401 39.13983269 -7.4014473 33.04811096 C-7.3994418 30.45487935 -7.40191673 27.86164038 -7.40888596 25.26841736 C-7.41647945 21.64814489 -7.40492499 18.02843365 -7.38818359 14.40820312 C-7.39425629 13.32966568 -7.40032898 12.25112823 -7.40658569 11.13990784 C-7.39812622 10.1556633 -7.38966675 9.17141876 -7.38095093 8.15734863 C-7.37981985 7.30121223 -7.37868877 6.44507584 -7.37752342 5.56299591 C-6.63991691 1.28808224 -4.11093635 -0.04671519 0 0 Z " fill="#000000" transform="translate(409,255.625)"/>
<path d="M0 0 C1.0209375 -0.01160156 1.0209375 -0.01160156 2.0625 -0.0234375 C4.61307532 0.50107597 5.39250824 1.34263753 7 3.375 C7.38031673 5.56299591 7.38031673 5.56299591 7.38768005 8.15734863 C7.402537 9.63371544 7.402537 9.63371544 7.41769409 11.13990784 C7.41319244 12.21844528 7.4086908 13.29698273 7.40405273 14.40820312 C7.41091599 15.54499008 7.41777924 16.68177704 7.42485046 17.85301208 C7.44319279 21.62088412 7.43927054 25.38834278 7.43359375 29.15625 C7.43815168 31.76794573 7.44345608 34.37964025 7.44947815 36.99133301 C7.45951307 42.46903457 7.45620206 47.94661812 7.44604492 53.42431641 C7.43455898 59.75866212 7.44864547 66.09258468 7.4754414 72.42687464 C7.50024748 78.51859668 7.50278055 84.61012311 7.49632454 90.70188904 C7.49617076 93.2951274 7.50226155 95.8883737 7.51461601 98.48158264 C7.52943385 102.10197777 7.51891606 105.72143193 7.50170898 109.34179688 C7.51137695 110.42033432 7.52104492 111.49887177 7.53100586 112.61009216 C7.52117172 113.5943367 7.51133759 114.57858124 7.50120544 115.59265137 C7.50099616 116.44878777 7.50078688 117.30492416 7.50057125 118.18700409 C7 120.375 7 120.375 5.19133091 122.15045929 C2.00220513 123.93257916 -0.41567157 123.76601765 -4 123.375 C-6.20645169 121.77722644 -6.91100227 120.89080023 -7.37752342 118.18700409 C-7.3786545 117.33086769 -7.37978558 116.47473129 -7.38095093 115.59265137 C-7.3894104 114.60840683 -7.39786987 113.62416229 -7.40658569 112.61009216 C-7.400513 111.53155472 -7.39444031 110.45301727 -7.38818359 109.34179688 C-7.39344055 108.20500992 -7.39869751 107.06822296 -7.40411377 105.89698792 C-7.41734694 102.12910329 -7.40856361 98.36163912 -7.3984375 94.59375 C-7.40045727 91.98205484 -7.4033679 89.37036022 -7.40713501 86.75866699 C-7.41259399 81.28095928 -7.4053973 75.80337289 -7.39111328 70.32568359 C-7.37478636 63.99139862 -7.38007478 57.65740332 -7.3965925 51.32312536 C-7.4118423 45.23141477 -7.41023401 39.13983269 -7.4014473 33.04811096 C-7.3994418 30.45487935 -7.40191673 27.86164038 -7.40888596 25.26841736 C-7.41647945 21.64814489 -7.40492499 18.02843365 -7.38818359 14.40820312 C-7.39425629 13.32966568 -7.40032898 12.25112823 -7.40658569 11.13990784 C-7.39812622 10.1556633 -7.38966675 9.17141876 -7.38095093 8.15734863 C-7.37981985 7.30121223 -7.37868877 6.44507584 -7.37752342 5.56299591 C-6.63991691 1.28808224 -4.11093635 -0.04671519 0 0 Z " fill="#000000" transform="translate(256,255.625)"/>
<path d="M0 0 C1.0209375 -0.01160156 1.0209375 -0.01160156 2.0625 -0.0234375 C4.61307532 0.50107597 5.39250824 1.34263753 7 3.375 C7.38031673 5.56299591 7.38031673 5.56299591 7.38768005 8.15734863 C7.402537 9.63371544 7.402537 9.63371544 7.41769409 11.13990784 C7.41319244 12.21844528 7.4086908 13.29698273 7.40405273 14.40820312 C7.41091599 15.54499008 7.41777924 16.68177704 7.42485046 17.85301208 C7.44319279 21.62088412 7.43927054 25.38834278 7.43359375 29.15625 C7.43815168 31.76794573 7.44345608 34.37964025 7.44947815 36.99133301 C7.45951307 42.46903457 7.45620206 47.94661812 7.44604492 53.42431641 C7.43455898 59.75866212 7.44864547 66.09258468 7.4754414 72.42687464 C7.50024748 78.51859668 7.50278055 84.61012311 7.49632454 90.70188904 C7.49617076 93.2951274 7.50226155 95.8883737 7.51461601 98.48158264 C7.52943385 102.10197777 7.51891606 105.72143193 7.50170898 109.34179688 C7.51137695 110.42033432 7.52104492 111.49887177 7.53100586 112.61009216 C7.52117172 113.5943367 7.51133759 114.57858124 7.50120544 115.59265137 C7.50099616 116.44878777 7.50078688 117.30492416 7.50057125 118.18700409 C7 120.375 7 120.375 5.19133091 122.15045929 C2.00220513 123.93257916 -0.41567157 123.76601765 -4 123.375 C-6.20645169 121.77722644 -6.91100227 120.89080023 -7.37752342 118.18700409 C-7.3786545 117.33086769 -7.37978558 116.47473129 -7.38095093 115.59265137 C-7.3894104 114.60840683 -7.39786987 113.62416229 -7.40658569 112.61009216 C-7.400513 111.53155472 -7.39444031 110.45301727 -7.38818359 109.34179688 C-7.39344055 108.20500992 -7.39869751 107.06822296 -7.40411377 105.89698792 C-7.41734694 102.12910329 -7.40856361 98.36163912 -7.3984375 94.59375 C-7.40045727 91.98205484 -7.4033679 89.37036022 -7.40713501 86.75866699 C-7.41259399 81.28095928 -7.4053973 75.80337289 -7.39111328 70.32568359 C-7.37478636 63.99139862 -7.38007478 57.65740332 -7.3965925 51.32312536 C-7.4118423 45.23141477 -7.41023401 39.13983269 -7.4014473 33.04811096 C-7.3994418 30.45487935 -7.40191673 27.86164038 -7.40888596 25.26841736 C-7.41647945 21.64814489 -7.40492499 18.02843365 -7.38818359 14.40820312 C-7.39425629 13.32966568 -7.40032898 12.25112823 -7.40658569 11.13990784 C-7.39812622 10.1556633 -7.38966675 9.17141876 -7.38095093 8.15734863 C-7.37981985 7.30121223 -7.37868877 6.44507584 -7.37752342 5.56299591 C-6.63991691 1.28808224 -4.11093635 -0.04671519 0 0 Z " fill="#000000" transform="translate(103,255.625)"/>
<path d="M0 0 C5.4379023 2.20069991 10.39430223 5.27835937 15.36230469 8.36865234 C18.28476673 10.176121 21.23716321 11.92737034 24.1953125 13.67578125 C26.29788257 14.92799725 28.39945709 16.18188648 30.5 17.4375 C31.50981934 18.04029785 32.51963867 18.6430957 33.56005859 19.26416016 C34.96892334 20.12146729 34.96892334 20.12146729 36.40625 20.99609375 C37.66405273 21.75684204 37.66405273 21.75684204 38.94726562 22.53295898 C41 24 41 24 43 27 C42.81989972 30.36187193 42.58112046 32.99918142 40.875 35.9375 C37.87228036 37.63904113 35.40083155 37.25730478 32 37 C28.67016602 35.51879883 28.67016602 35.51879883 25.25390625 33.45703125 C24.33169533 32.90881966 24.33169533 32.90881966 23.39085388 32.34953308 C21.43915391 31.18467335 19.5010368 29.99910778 17.5625 28.8125 C16.26580609 28.03441883 14.9682857 27.25771328 13.66992188 26.48242188 C8.49338411 23.37864767 3.36957745 20.25805354 -1.59765625 16.82421875 C-4.740545 14.62860154 -4.740545 14.62860154 -7.34423828 15.6796875 C-10.2575794 17.12805565 -13.07868281 18.67017571 -15.89453125 20.30078125 C-17.01537109 20.94853516 -18.13621094 21.59628906 -19.29101562 22.26367188 C-19.87020752 22.60068115 -20.44939941 22.93769043 -21.04614258 23.28491211 C-22.79496155 24.30229692 -24.54660746 25.31465931 -26.29882812 26.32617188 C-31.11927204 29.11899067 -35.91361969 31.91618606 -40.58984375 34.9453125 C-44.49666337 37.29924963 -46.52035338 37.77532345 -51 37 C-53.4375 35.375 -53.4375 35.375 -55 33 C-55.5625 30.0625 -55.5625 30.0625 -55 27 C-50.62151831 21.538668 -44.51383982 18.58304122 -38.5 15.1875 C-30.09648862 10.48796208 -30.09648862 10.48796208 -21.98828125 5.30859375 C-14.67315836 0.27888441 -8.88020094 -2.23228866 0 0 Z " fill="#020303" transform="translate(262,37)"/>
<path d="M0 0 C4.16629205 -0.14628834 8.33191597 -0.23440421 12.5 -0.3125 C13.67304688 -0.35439453 14.84609375 -0.39628906 16.0546875 -0.43945312 C23.3918632 -0.54250335 28.41202767 0.02127694 34 5 C37.49374006 8.58108356 39.29502148 12.49556313 39.5625 17.5 C39.18646725 23.54786005 36.87158938 28.17640009 32.5625 32.375 C28.00786434 35.26330554 24.43762478 36.25064231 19.04296875 36.1953125 C17.93115234 36.18886719 16.81933594 36.18242187 15.67382812 36.17578125 C14.52333984 36.15902344 13.37285156 36.14226562 12.1875 36.125 C11.01767578 36.11597656 9.84785156 36.10695313 8.64257812 36.09765625 C5.76150947 36.07413732 2.88086011 36.04126852 0 36 C1.13584211 33.6950536 2.30948816 31.46294701 3.59375 29.234375 C5.22163524 25.49023895 5.51549217 22.26247273 5.5 18.25 C5.54640625 16.27773438 5.54640625 16.27773438 5.59375 14.265625 C5.24656136 8.94036396 2.58722584 4.56168766 0 0 Z " fill="#98A6E3" transform="translate(458,461)"/>
<path d="M0 0 C10.58777241 -0.09274882 21.1754479 -0.16378987 31.76354408 -0.20724869 C36.68023673 -0.22810857 41.5966511 -0.25639707 46.51318359 -0.30175781 C51.25942082 -0.34527251 56.00539064 -0.36914914 60.75181198 -0.37950897 C62.56110213 -0.38689024 64.37037791 -0.40130427 66.17955399 -0.42292023 C68.71719037 -0.45202938 71.25372697 -0.45595293 73.79150391 -0.45410156 C74.90928726 -0.47567322 74.90928726 -0.47567322 76.0496521 -0.49768066 C81.17589406 -0.45730957 84.04774995 0.78245449 88 4 C90.1633006 6.74018076 90.92352448 8.48652151 91.4375 11.9375 C90.75853996 16.69022029 88.64111253 19.72696048 84.86714172 22.65449524 C81.15113566 24.39835876 77.83190822 24.39774904 73.81323242 24.34057617 C73.00295593 24.34101425 72.19267944 24.34145233 71.35784912 24.34190369 C68.69014052 24.33982024 66.02306703 24.31651045 63.35546875 24.29296875 C61.50173791 24.28737121 59.64800262 24.28310186 57.79426575 24.28010559 C52.9230619 24.26866927 48.05212779 24.23921248 43.18103027 24.20599365 C38.20731251 24.17526665 33.23355102 24.16159463 28.25976562 24.14648438 C18.50639212 24.11434165 8.75321852 24.06315992 -1 24 C-1 23.67 -1 23.34 -1 23 C17.48 22.67 35.96 22.34 55 22 C56.72330409 17.69173978 57.2743972 15.82289629 57.25 11.4375 C57.25515625 10.50808594 57.2603125 9.57867187 57.265625 8.62109375 C57.12121502 5.65117307 57.12121502 5.65117307 55 2 C36.85 1.67 18.7 1.34 0 1 C0 0.67 0 0.34 0 0 Z " fill="#5E78CC" transform="translate(368,422)"/>
<path d="M0 0 C4.37487331 -0.08738991 8.74952078 -0.140524 13.125 -0.1875 C14.3625 -0.21263672 15.6 -0.23777344 16.875 -0.26367188 C18.07382812 -0.27333984 19.27265625 -0.28300781 20.5078125 -0.29296875 C21.60754395 -0.3086792 22.70727539 -0.32438965 23.84033203 -0.34057617 C28.49128906 0.16074395 31.86625022 1.63950027 34.875 5.25 C36.33017877 8.80710366 36.46888682 11.18192158 36 15 C33.88997874 18.99396882 32.24353791 21.41941468 28 23 C24.97558594 23.22705078 24.97558594 23.22705078 21.484375 23.1953125 C19.60878906 23.18564453 19.60878906 23.18564453 17.6953125 23.17578125 C16.39335937 23.15902344 15.09140625 23.14226562 13.75 23.125 C12.43257813 23.11597656 11.11515625 23.10695312 9.7578125 23.09765625 C6.50502538 23.07408533 3.25260411 23.04118022 0 23 C0.48678223 21.86014648 0.48678223 21.86014648 0.98339844 20.69726562 C2.1937559 17.48592334 2.26600264 14.92456582 2.25 11.5 C2.25773437 9.84484375 2.25773437 9.84484375 2.265625 8.15625 C2.00117134 5.01391826 1.22691665 2.87295875 0 0 Z " fill="#607DD7" transform="translate(423,188)"/>
<path d="M0 0 C8.34228909 -0.48361096 8.34228909 -0.48361096 11.125 1.5625 C12.36557904 5.01839875 11.84932967 7.47201523 11 11 C9 13 9 13 6.8359375 13.1953125 C4.55729167 13.13020833 2.27864583 13.06510417 0 13 C0 8.71 0 4.42 0 0 Z " fill="#A8B4DF" transform="translate(162,127)"/>
<path d="M0 0 C2.31 0 4.62 0 7 0 C7.625 2.875 7.625 2.875 8 6 C6 8 6 8 2.875 8.125 C1.451875 8.063125 1.451875 8.063125 0 8 C0 5.36 0 2.72 0 0 Z " fill="#AAB7E2" transform="translate(162,104)"/>
<path d="M0 0 C2.96052484 3.36423277 3.92289822 6.69159287 5 11 C2.03 11 -0.94 11 -4 11 C-3.52269162 9.5410574 -3.04308958 8.08286504 -2.5625 6.625 C-2.29566406 5.81289062 -2.02882812 5.00078125 -1.75390625 4.1640625 C-1 2 -1 2 0 0 Z " fill="#A0ACD4" transform="translate(223,116)"/>
</svg>
