<?xml version="1.0" encoding="UTF-8"?>
<svg version="1.1" xmlns="http://www.w3.org/2000/svg" width="500" height="500">
<path d="M0 0 C0.67487331 0.01060707 1.34974663 0.02121414 2.04507065 0.03214264 C125.19755017 1.98616975 125.19755017 1.98616975 147.125 21.625 C148.17107422 22.52798828 148.17107422 22.52798828 149.23828125 23.44921875 C163.93378401 37.94921593 166.03197474 65.30964643 167.234375 84.52734375 C167.27624687 85.19292738 167.31811874 85.85851101 167.36125946 86.54426384 C168.50897188 105.36788707 168.42823802 124.21886339 168.38574219 143.07006836 C168.374341 148.16782514 168.38113759 153.26537324 168.39261627 158.36312294 C168.57466812 253.47215031 168.57466812 253.47215031 147.5 275.46484375 C136.23776089 285.70829478 123.9830713 291.13002835 108.85546875 292.6875 C108.07993652 292.77007553 107.3044043 292.85265106 106.50537109 292.93772888 C97.5626713 293.84648292 88.60247202 294.28999359 79.625 294.6875 C77.80200027 294.77136642 75.97900226 294.85527017 74.15600586 294.93920898 C68.81287673 295.18131166 63.46917594 295.40732223 58.125 295.625 C57.4159552 295.65400391 56.7069104 295.68300781 55.97637939 295.71289062 C46.32952295 296.10154948 36.68087555 296.35824882 27.02868652 296.56317139 C24.9522509 296.60738523 22.87583704 296.6526262 20.79943848 296.69854736 C-20.45540577 297.60731526 -61.61663562 297.69033143 -102.875 296.625 C-104.26039627 296.58963823 -105.64579259 296.55427856 -107.03118896 296.5189209 C-116.25745382 296.28190139 -125.48297652 296.02372605 -134.70816422 295.74802017 C-136.70842991 295.68873214 -138.70875265 295.63137861 -140.70907593 295.57406616 C-210.09750058 293.547456 -210.09750058 293.547456 -227.875 277.625 C-228.55046875 277.05265625 -229.2259375 276.4803125 -229.921875 275.890625 C-237.9229251 268.61147416 -241.53750141 259.39398065 -244.625 249.25 C-244.82375732 248.60361572 -245.02251465 247.95723145 -245.22729492 247.29125977 C-253.50284786 218.20089988 -251.20072 185.04648047 -251.13574219 155.10400391 C-251.12436341 149.81795315 -251.13111208 144.5321042 -251.14262772 139.24606037 C-251.31836975 44.00896369 -251.31836975 44.00896369 -230.3125 21.5625 C-217.94381996 9.63359525 -203.34116863 5.30201561 -186.5625 4 C-185.85715118 3.9418512 -185.15180237 3.88370239 -184.42507935 3.8237915 C-150.22484653 1.02646154 -115.79326393 0.60805178 -81.5 0 C-80.33781952 -0.02064514 -79.17563904 -0.04129028 -77.97824097 -0.06256104 C-51.97896989 -0.50972806 -25.999307 -0.40887254 0 0 Z M-83.875 86.625 C-83.875 124.575 -83.875 162.525 -83.875 201.625 C-78.925 198.985 -73.975 196.345 -68.875 193.625 C-65.32109716 191.90838858 -61.769514 190.21584433 -58.1875 188.5625 C-51.51772823 185.43763157 -45.10135381 182.14430548 -38.796875 178.32421875 C-35.37072124 176.33173628 -31.86644835 174.56353926 -28.3125 172.8125 C-22.30848728 169.85388569 -16.3566559 166.81268447 -10.4375 163.6875 C-9.64480713 163.26927979 -8.85211426 162.85105957 -8.03540039 162.42016602 C-4.08710795 160.33329756 -0.14458326 158.23596583 3.79296875 156.12890625 C10.81222063 152.37893651 17.77493363 148.69866412 25.125 145.625 C25.125 144.965 25.125 144.305 25.125 143.625 C24.54347168 143.32432617 23.96194336 143.02365234 23.36279297 142.71386719 C12.64188817 137.16358073 1.95250405 131.56963704 -8.625 125.75 C-24.95081067 116.78855765 -41.40664048 108.01965131 -58.34082031 100.2578125 C-63.4450685 97.89526003 -68.27189719 95.20074793 -73.06640625 92.265625 C-76.57553426 90.21578666 -80.24007864 88.44246068 -83.875 86.625 Z " fill="#FD0000" transform="translate(290.875,101.375)"/>
<path d="M0 0 C0.67487331 0.01060707 1.34974663 0.02121414 2.04507065 0.03214264 C124.23458939 1.97089072 124.23458939 1.97089072 142.125 17.625 C141.465 18.285 140.805 18.945 140.125 19.625 C139.795 18.965 139.465 18.305 139.125 17.625 C136.8109378 16.89424352 134.47671131 16.22361742 132.125 15.625 C132.125 14.965 132.125 14.305 132.125 13.625 C131.526875 13.480625 130.92875 13.33625 130.3125 13.1875 C128.56349596 12.7377561 126.83822977 12.19607659 125.125 11.625 C125.125 10.965 125.125 10.305 125.125 9.625 C122.815 9.625 120.505 9.625 118.125 9.625 C117.795 8.965 117.465 8.305 117.125 7.625 C109.83311571 6.23180325 102.39196039 6.42125801 94.9921875 6.34375 C93.6279329 6.32567255 92.26368519 6.30706788 90.89944458 6.28796387 C85.87021184 6.2186676 80.84087542 6.15883126 75.81152344 6.09893799 C71.54696462 6.04781191 67.28248562 5.99294734 63.0180397 5.93312073 C61.02955874 5.90674569 59.04100719 5.88587624 57.05245972 5.8651123 C55.22994186 5.84003601 55.22994186 5.84003601 53.37060547 5.81445312 C51.77465042 5.79566101 51.77465042 5.79566101 50.14645386 5.77648926 C47.125 5.625 47.125 5.625 44.35620403 5.1234684 C40.98394376 4.60323967 37.8155231 4.49912493 34.40428162 4.49801636 C33.42741295 4.49567637 33.42741295 4.49567637 32.43080956 4.49328911 C30.26040887 4.48931893 28.09007887 4.49245388 25.91967773 4.49560547 C24.35635843 4.49424915 22.79303945 4.49246791 21.22972107 4.49029541 C16.9792486 4.4857339 12.72880041 4.48750928 8.47832751 4.4906745 C3.98303335 4.49322209 -0.51225885 4.49085231 -5.0075531 4.48928833 C-12.59789394 4.48746632 -20.18822509 4.48986618 -27.77856445 4.49462891 C-35.48137042 4.4994079 -43.18415699 4.49950352 -50.88696289 4.49462891 C-101.39220118 4.3870806 -101.39220118 4.3870806 -151.890625 5.08203125 C-153.20443492 5.11235506 -153.20443492 5.11235506 -154.54478645 5.14329147 C-171.67707878 5.55694442 -188.6351974 6.0761703 -205.29956055 10.3918457 C-208.91817635 11.31787789 -211.30906157 11.71517649 -214.875 10.625 C-205.33204658 6.76131212 -196.76341885 4.6822782 -186.4375 3.9375 C-184.9896628 3.8224525 -183.5418276 3.70737981 -182.09399414 3.59228516 C-148.65239279 1.06289367 -115.01921061 0.59432709 -81.5 0 C-80.33781952 -0.02064514 -79.17563904 -0.04129028 -77.97824097 -0.06256104 C-51.97896989 -0.50972806 -25.999307 -0.40887254 0 0 Z " fill="#E66E6E" transform="translate(290.875,101.375)"/>
<path d="M0 0 C1.43655854 -0.08131463 2.8744483 -0.13933559 4.3125 -0.1875 C5.51326172 -0.23970703 5.51326172 -0.23970703 6.73828125 -0.29296875 C9 0 9 0 10.25585938 1.46118164 C12.76903838 3.67850629 14.85548928 3.60797293 18.16796875 3.9140625 C19.43890381 4.03475098 20.70983887 4.15543945 22.01928711 4.27978516 C23.40861772 4.39574305 24.79802444 4.51079213 26.1875 4.625 C27.61532346 4.75170358 29.04313911 4.87849521 30.47094727 5.00537109 C42.11718978 6.00126663 53.76755177 6.4724223 65.4519043 6.70947266 C66.70398682 6.7357373 67.95606934 6.76200195 69.24609375 6.7890625 C70.33591553 6.80662598 71.4257373 6.82418945 72.54858398 6.84228516 C76 7 76 7 79.84765625 7.4934082 C87.25630606 8.35689513 94.7417833 8.23929371 102.19140625 8.31640625 C103.89876182 8.33707843 105.60611348 8.35807666 107.3134613 8.37937927 C110.90515586 8.42324946 114.49686765 8.46412386 118.08862305 8.50268555 C122.55996095 8.55078155 127.03120281 8.60466399 131.50244808 8.66064739 C164.54736751 9.07190907 197.59955743 9.3178406 230.64233398 8.62768555 C233.94830987 8.55970745 237.25438292 8.50140416 240.56054688 8.44335938 C242.69271929 8.40159738 244.82488138 8.35930391 246.95703125 8.31640625 C248.41892632 8.29133751 248.41892632 8.29133751 249.91035461 8.26576233 C251.24794075 8.2358445 251.24794075 8.2358445 252.61254883 8.20532227 C253.39124832 8.18977798 254.16994781 8.1742337 254.97224426 8.15821838 C257.20385838 8.06619806 257.20385838 8.06619806 260 7 C262.80331168 6.86862941 265.5858936 6.78998177 268.390625 6.75390625 C270.1362354 6.7223582 271.88184069 6.69052666 273.62744141 6.65844727 C274.54535461 6.64306915 275.46326782 6.62769104 276.40899658 6.61184692 C290.82997866 6.36136109 305.22951661 5.97258973 319.625 5.0625 C321.49526855 4.95047241 321.49526855 4.95047241 323.40332031 4.83618164 C328.25414094 4.5066092 332.88635785 4.15662415 337.5859375 2.87109375 C340.90647502 2.02386278 341.90032688 2.0380763 345 3 C338.30945009 5.70245741 331.94838967 7.33877664 324.7734375 8.06640625 C323.99480347 8.1486998 323.21616943 8.23099335 322.41394043 8.31578064 C313.45989723 9.21906193 304.48825107 9.66451632 295.5 10.0625 C293.67700027 10.14636642 291.85400226 10.23027017 290.03100586 10.31420898 C284.68787673 10.55631166 279.34417594 10.78232223 274 11 C273.2909552 11.02900391 272.5819104 11.05800781 271.85137939 11.08789062 C262.20452295 11.47654948 252.55587555 11.73324882 242.90368652 11.93817139 C240.8272509 11.98238523 238.75083704 12.0276262 236.67443848 12.07354736 C195.41959423 12.98231526 154.25836438 13.06533143 113 12 C111.61460373 11.96463823 110.22920741 11.92927856 108.84381104 11.8939209 C99.61754618 11.65690139 90.39202348 11.39872605 81.16683578 11.12302017 C79.16657009 11.06373214 77.16624735 11.00637861 75.16592407 10.94906616 C17.04777137 9.25162398 17.04777137 9.25162398 0 1 C0 0.67 0 0.34 0 0 Z " fill="#E97070" transform="translate(75,386)"/>
<path d="M0 0 C-0.23046875 1.890625 -0.23046875 1.890625 -1 4 C-2.92578125 4.984375 -2.92578125 4.984375 -5.3125 5.75 C-9.02983739 7.23693496 -10.6789145 8.37543446 -12.4375 12 C-12.97403885 13.32709126 -13.495092 14.66055495 -14 16 C-15.36070518 19.16893117 -16.85912313 21.03434906 -19.5 23.25 C-20.1084375 23.77078125 -20.716875 24.2915625 -21.34375 24.828125 C-23 26 -23 26 -25 26 C-25.2475 27.175625 -25.495 28.35125 -25.75 29.5625 C-26.9612106 35.09572827 -28.52711139 40.52033305 -30.09765625 45.9609375 C-32.80983984 56.96579859 -32.31913958 68.79360908 -32.5625 80.0625 C-32.58334656 80.99430084 -32.60419312 81.92610168 -32.62567139 82.88613892 C-33.35147849 116.23372078 -33.5590787 149.65601725 -32.5625 183 C-32.5429425 183.68194427 -32.52338501 184.36388855 -32.50323486 185.0664978 C-32.6589879 191.73120078 -32.6589879 191.73120078 -31 198 C-30.91573906 199.6674606 -30.89274857 201.33825187 -30.90234375 203.0078125 C-30.90717773 204.48701172 -30.90717773 204.48701172 -30.91210938 205.99609375 C-30.92048828 207.02863281 -30.92886719 208.06117188 -30.9375 209.125 C-30.94426758 210.68541016 -30.94426758 210.68541016 -30.95117188 212.27734375 C-30.96298048 214.85161962 -30.97944925 217.42578146 -31 220 C-30.34 220 -29.68 220 -29 220 C-28.90912109 221.06541016 -28.90912109 221.06541016 -28.81640625 222.15234375 C-28.73261719 223.07144531 -28.64882813 223.99054688 -28.5625 224.9375 C-28.48128906 225.85402344 -28.40007813 226.77054688 -28.31640625 227.71484375 C-28.23955024 229.96159732 -28.23955024 229.96159732 -27 231 C-26.97246169 232.5207267 -26.95336625 234.04160674 -26.9375 235.5625 C-26.46494344 242.09237244 -23.80078673 247.05261785 -20.70678711 252.69165039 C-19.756477 254.43576648 -18.87221241 256.2155461 -18 258 C-18.33 258.66 -18.66 259.32 -19 260 C-42.95104399 231.93871329 -36.33550257 177.92939491 -36.26074219 143.47900391 C-36.24936341 138.19295315 -36.25611208 132.9071042 -36.26762772 127.62106037 C-36.44405948 32.0101896 -36.44405948 32.0101896 -15.1875 9.8125 C-5.07261171 0 -5.07261171 0 0 0 Z " fill="#E55655" transform="translate(76,113)"/>
<path d="M0 0 C1.98 0 3.96 0 6 0 C6 0.66 6 1.32 6 2 C7.32 2 8.64 2 10 2 C10 2.66 10 3.32 10 4 C10.99 4 11.98 4 13 4 C13.21317871 4.59329102 13.42635742 5.18658203 13.64599609 5.79785156 C15.49112124 8.79875831 17.53274031 9.65289914 20.6640625 11.234375 C21.78554687 11.80800781 22.90703125 12.38164062 24.0625 12.97265625 C25.8259375 13.85244141 25.8259375 13.85244141 27.625 14.75 C28.82086041 15.35699466 30.01618 15.96505609 31.2109375 16.57421875 C34.13546935 18.06006961 37.0650993 19.53476586 40 21 C37 22 37 22 34.49145508 20.99951172 C33.51072021 20.48146973 32.52998535 19.96342773 31.51953125 19.4296875 C30.43736328 18.8625 29.35519531 18.2953125 28.24023438 17.7109375 C27.10908203 17.10507813 25.97792969 16.49921875 24.8125 15.875 C23.70068359 15.29234375 22.58886719 14.7096875 21.44335938 14.109375 C15.44341166 10.94066371 9.77574304 7.6098394 4 4 C4 41.29 4 78.58 4 117 C9.28 114.03 14.56 111.06 20 108 C22.76973912 106.60153107 25.55486555 105.23133609 28.375 103.9375 C29.00148437 103.64423828 29.62796875 103.35097656 30.2734375 103.04882812 C34.72615998 101 34.72615998 101 37 101 C37 101.66 37 102.32 37 103 C36.34 103 35.68 103 35 103 C35.3403125 104.1446875 35.3403125 104.1446875 35.6875 105.3125 C35.8421875 106.6428125 35.8421875 106.6428125 36 108 C34.5625 109.8125 34.5625 109.8125 33 111 C32.01 110.34 31.02 109.68 30 109 C26.24301443 108.62430144 25.24633524 108.8357765 22 111 C19.67612053 111.39387788 17.34206251 111.73486085 15 112 C14.67 113.32 14.34 114.64 14 116 C10.535 116.495 10.535 116.495 7 117 C7 117.66 7 118.32 7 119 C4.03 119.495 4.03 119.495 1 120 C0.02690359 117.08071078 -0.12350964 115.23449736 -0.12025452 112.19746399 C-0.12162918 111.20888397 -0.12300385 110.22030396 -0.12442017 109.20176697 C-0.12082489 108.11851639 -0.11722961 107.03526581 -0.11352539 105.91918945 C-0.11367142 104.77758362 -0.11381744 103.63597778 -0.1139679 102.45977783 C-0.11326993 98.67759313 -0.10548291 94.89545737 -0.09765625 91.11328125 C-0.09579166 88.4944003 -0.09436795 85.875519 -0.09336853 83.25663757 C-0.09025953 77.06247633 -0.08205194 70.86833273 -0.07201904 64.67417926 C-0.06084454 57.62225115 -0.05534408 50.5703222 -0.05032361 43.51838744 C-0.03986898 29.01224919 -0.02227786 14.50612484 0 0 Z " fill="#E44D4F" transform="translate(204,185)"/>
<path d="M0 0 C1.07465189 0.81760259 2.1339583 1.65536956 3.1875 2.5 C3.77917969 2.9640625 4.37085938 3.428125 4.98046875 3.90625 C31.57921428 31.48251229 24.33935629 88.63508984 24.26074219 123.44506836 C24.249341 128.54282514 24.25613759 133.64037324 24.26761627 138.73812294 C24.43077318 223.97590155 24.43077318 223.97590155 9 249 C8.34 249.33 7.68 249.66 7 250 C7.99011865 247.48175303 9.00517362 244.98847282 10.11328125 242.51953125 C17.04439568 226.87372571 19.85563256 211.62621433 20.79986572 194.60151672 C20.94234362 192.03755541 21.09212005 189.47461776 21.24794006 186.91148376 C21.93153124 175.2981428 22.16304484 163.72543421 22.16796875 152.09375 C22.17119336 150.26721167 22.17455826 148.44067358 22.17805481 146.61413574 C22.18397136 142.83275756 22.1859018 139.051402 22.18530273 135.27001953 C22.18519984 130.42246471 22.19901454 125.5750522 22.21607494 120.72753143 C22.22715952 116.97698287 22.22922328 113.22646964 22.22869301 109.47590637 C22.2298722 107.68650305 22.23429058 105.89709879 22.24202538 104.10771179 C22.25178242 101.62443643 22.24896782 99.14148326 22.24291992 96.65820312 C22.25134918 95.5549897 22.25134918 95.5549897 22.25994873 94.42948914 C22.23694735 90.72775837 22.11072751 89.16609126 20 86 C19.68115234 83.45068359 19.68115234 83.45068359 19.5859375 80.3984375 C19.52780884 78.71391479 19.52780884 78.71391479 19.46850586 76.99536133 C19.43764893 75.80064209 19.40679199 74.60592285 19.375 73.375 C19.33705322 72.16416748 19.29910645 70.95333496 19.26000977 69.70581055 C18.98908273 60.46910324 18.88271182 51.23970244 19 42 C18.34 42 17.68 42 17 42 C16.82984375 40.88882813 16.6596875 39.77765625 16.484375 38.6328125 C15.25958212 30.99824158 14.01496311 23.87162357 10.76953125 16.78515625 C10 15 10 15 10 13 C9.401875 12.938125 8.80375 12.87625 8.1875 12.8125 C5.07582373 11.65673453 4.51416931 9.89667172 3 7 C2.443125 6.113125 1.88625 5.22625 1.3125 4.3125 C0 2 0 2 0 0 Z " fill="#E68B8B" transform="translate(435,121)"/>
<path d="M0 0 C1.43655854 -0.08131463 2.8744483 -0.13933559 4.3125 -0.1875 C5.51326172 -0.23970703 5.51326172 -0.23970703 6.73828125 -0.29296875 C9 0 9 0 10.25585938 1.46118164 C12.76903838 3.67850629 14.85548928 3.60797293 18.16796875 3.9140625 C19.43890381 4.03475098 20.70983887 4.15543945 22.01928711 4.27978516 C23.40861772 4.39574305 24.79802444 4.51079213 26.1875 4.625 C27.61532346 4.75170358 29.04313911 4.87849521 30.47094727 5.00537109 C42.11718978 6.00126663 53.76755177 6.4724223 65.4519043 6.70947266 C66.70398682 6.7357373 67.95606934 6.76200195 69.24609375 6.7890625 C70.33591553 6.80662598 71.4257373 6.82418945 72.54858398 6.84228516 C76 7 76 7 79.83886719 7.49560547 C86.48291872 8.27010528 93.17169894 8.20414202 99.85209084 8.26036072 C102.39573016 8.28178656 104.93926162 8.30879155 107.48283386 8.33703613 C112.01122854 8.3864167 116.53965559 8.43097291 121.06811523 8.47393799 C129.07281422 8.5499545 137.07745135 8.63107836 145.08203125 8.71875 C146.38559256 8.73282898 146.38559256 8.73282898 147.71548843 8.74719238 C165.81679232 8.94821547 183.9070977 9.42421531 202 10 C202 10.33 202 10.66 202 11 C121.41287583 11.19534071 121.41287583 11.19534071 81.71908951 10.65256882 C79.65376117 10.62537864 77.58841948 10.60141584 75.52304077 10.57839966 C18.39983673 9.90606348 18.39983673 9.90606348 0 1 C0 0.67 0 0.34 0 0 Z " fill="#D22625" transform="translate(75,386)"/>
<path d="M0 0 C111.31320254 -0.47594778 111.31320254 -0.47594778 129 15 C128.34 15.66 127.68 16.32 127 17 C126.505 16.01 126.505 16.01 126 15 C123.6859378 14.26924352 121.35171131 13.59861742 119 13 C119 12.34 119 11.68 119 11 C118.401875 10.855625 117.80375 10.71125 117.1875 10.5625 C115.43849596 10.1127561 113.71322977 9.57107659 112 9 C112 8.34 112 7.68 112 7 C109.69 7 107.38 7 105 7 C104.505 6.01 104.505 6.01 104 5 C96.70811571 3.60680325 89.26696039 3.79625801 81.8671875 3.71875 C80.5029329 3.70067255 79.13868519 3.68206788 77.77444458 3.66296387 C72.74521184 3.5936676 67.71587542 3.53383126 62.68652344 3.47393799 C58.42196462 3.42281191 54.15748562 3.36794734 49.8930397 3.30812073 C47.90455874 3.28174569 45.91600719 3.26087624 43.92745972 3.2401123 C42.10494186 3.21503601 42.10494186 3.21503601 40.24560547 3.18945312 C38.64965042 3.17066101 38.64965042 3.17066101 37.02145386 3.15148926 C33.94521293 2.99725309 31.02974505 2.53961951 28 2 C25.76498766 1.85886429 23.52737298 1.7554661 21.2890625 1.68359375 C20.04511719 1.64169922 18.80117188 1.59980469 17.51953125 1.55664062 C16.23433594 1.51732422 14.94914062 1.47800781 13.625 1.4375 C12.31660156 1.39431641 11.00820313 1.35113281 9.66015625 1.30664062 C6.44020203 1.20087571 3.22017469 1.09878421 0 1 C0 0.67 0 0.34 0 0 Z " fill="#D62222" transform="translate(304,104)"/>
<path d="M0 0 C0.33 0 0.66 0 1 0 C1.04694544 10.59902419 1.08217765 21.19802248 1.10362434 31.79713058 C1.11393275 36.72205096 1.12784558 41.64689874 1.15087891 46.57177734 C1.24835283 67.9641365 1.12190004 89.14024104 -0.79983521 110.46139526 C-1.07056469 113.89494182 -1.14256788 117.30654256 -1.1875 120.75 C-1.82446139 131.11287192 -5.05621702 142.39823612 -9 152 C-9.66 152.33 -10.32 152.66 -11 153 C-10.80664062 152.27296875 -10.61328125 151.5459375 -10.4140625 150.796875 C-8.73866235 144.32750808 -7.40727289 137.91234558 -6.4296875 131.30078125 C-6 129 -6 129 -5 128 C-4.78936893 125.49583065 -4.62427923 123.00859919 -4.5 120.5 C-4.13513514 113.13513514 -4.13513514 113.13513514 -3 112 C-2.85364765 109.97577355 -2.77254982 107.94676576 -2.71875 105.91796875 C-2.66267578 104.05495117 -2.66267578 104.05495117 -2.60546875 102.15429688 C-2.57066406 100.84525391 -2.53585937 99.53621094 -2.5 98.1875 C-2.43108171 95.61837921 -2.35832996 93.04935762 -2.28125 90.48046875 C-2.25095703 89.33473389 -2.22066406 88.18899902 -2.18945312 87.00854492 C-2 84 -2 84 -1.50099182 82.29933167 C-0.77146596 78.95112948 -0.82143769 75.61337526 -0.79467773 72.20214844 C-0.77982834 71.03084381 -0.77982834 71.03084381 -0.76467896 69.83587646 C-0.73314627 67.26040659 -0.70833914 64.68491829 -0.68359375 62.109375 C-0.66301711 60.32146735 -0.64202045 58.53356449 -0.62062073 56.7456665 C-0.56547337 52.04394411 -0.51603177 47.34217834 -0.46777344 42.64038086 C-0.41750482 37.84094389 -0.36184675 33.04156977 -0.30664062 28.2421875 C-0.19914879 18.82817871 -0.09768393 9.41411531 0 0 Z " fill="#D40E0C" transform="translate(457,208)"/>
<path d="M0 0 C-0.23046875 1.890625 -0.23046875 1.890625 -1 4 C-2.92578125 4.984375 -2.92578125 4.984375 -5.3125 5.75 C-9.02983739 7.23693496 -10.6789145 8.37543446 -12.4375 12 C-12.97403885 13.32709126 -13.495092 14.66055495 -14 16 C-15.36070518 19.16893117 -16.85912313 21.03434906 -19.5 23.25 C-20.1084375 23.77078125 -20.716875 24.2915625 -21.34375 24.828125 C-23 26 -23 26 -25 26 C-25.2475 27.175625 -25.495 28.35125 -25.75 29.5625 C-26.38548844 32.47986684 -27.09719691 35.33237689 -27.93554688 38.19921875 C-30.76637959 47.92786502 -31.98930948 57.35556216 -32.75 67.4375 C-32.87505309 68.95908754 -33.00134981 70.4805734 -33.12890625 72.00195312 C-33.43353627 75.66691518 -33.72159475 79.33294105 -34 83 C-34.33 83 -34.66 83 -35 83 C-34.4272127 55.56000742 -33.43349792 27.51302713 -12.57421875 7.27734375 C-4.34819897 0 -4.34819897 0 0 0 Z " fill="#F49291" transform="translate(76,113)"/>
<path d="M0 0 C1.43655854 -0.08131463 2.8744483 -0.13933559 4.3125 -0.1875 C5.51326172 -0.23970703 5.51326172 -0.23970703 6.73828125 -0.29296875 C9.54407909 0.07047657 10.07039723 1.03009221 12 3 C14.23942283 3.53694394 14.23942283 3.53694394 16.625 3.625 C20.91666667 3.91666667 20.91666667 3.91666667 22 5 C24.46024356 5.4012906 26.896651 5.73663133 29.37109375 6.0234375 C30.5067704 6.15557144 30.5067704 6.15557144 31.66539001 6.29037476 C40.44982456 7.24594624 49.23434803 7.4525155 58.0625 7.625 C59.71941808 7.66333278 61.37631952 7.70239228 63.03320312 7.7421875 C67.02199445 7.83645362 71.0108772 7.92105831 75 8 C75 8.66 75 9.32 75 10 C20.44737749 10.89713358 20.44737749 10.89713358 0 1 C0 0.67 0 0.34 0 0 Z " fill="#EA9896" transform="translate(75,386)"/>
<path d="M0 0 C-9.88179871 3.99147164 -19.48501655 5.17099916 -30 6 C-31.03036377 6.08677002 -31.03036377 6.08677002 -32.08154297 6.17529297 C-45.03758957 7.23685088 -58.01001446 7.10662319 -71 7 C-71 6.34 -71 5.68 -71 5 C-70.16678223 4.98018066 -69.33356445 4.96036133 -68.47509766 4.93994141 C-53.69613716 4.57315245 -38.93439774 4.14164431 -24.1875 3.0625 C-22.55385498 2.95059326 -22.55385498 2.95059326 -20.88720703 2.83642578 C-19.8867334 2.75763184 -18.88625977 2.67883789 -17.85546875 2.59765625 C-16.55065552 2.49723022 -16.55065552 2.49723022 -15.21948242 2.39477539 C-12.72097845 2.10317796 -12.72097845 2.10317796 -10 0 C-6.24324131 -0.8792414 -3.67984875 -1.05706239 0 0 Z " fill="#E98F8F" transform="translate(420,389)"/>
<path d="M0 0 C0.33 0 0.66 0 1 0 C1.05534912 0.9286084 1.11069824 1.8572168 1.16772461 2.81396484 C1.37486134 6.25446073 1.58588308 9.6946722 1.79956055 13.13476562 C1.89129382 14.624579 1.98147093 16.11448904 2.07006836 17.60449219 C2.1975803 19.74441322 2.33065852 21.88392586 2.46484375 24.0234375 C2.543396 25.31169434 2.62194824 26.59995117 2.70288086 27.92724609 C2.80577095 30.91075235 2.80577095 30.91075235 4 33 C4.08426094 34.6674606 4.10725143 36.33825187 4.09765625 38.0078125 C4.09443359 38.99394531 4.09121094 39.98007812 4.08789062 40.99609375 C4.07951172 42.02863281 4.07113281 43.06117188 4.0625 44.125 C4.05573242 45.68541016 4.05573242 45.68541016 4.04882812 47.27734375 C4.03701952 49.85161962 4.02055075 52.42578146 4 55 C4.66 55 5.32 55 6 55 C6.06058594 55.71027344 6.12117188 56.42054688 6.18359375 57.15234375 C6.26738281 58.07144531 6.35117187 58.99054688 6.4375 59.9375 C6.51871094 60.85402344 6.59992187 61.77054687 6.68359375 62.71484375 C6.76044976 64.96159732 6.76044976 64.96159732 8 66 C8.04092937 68.33297433 8.04241723 70.66705225 8 73 C-2.76009811 53.01696065 -0.48958747 22.08583459 0 0 Z " fill="#D00F0D" transform="translate(41,278)"/>
<path d="M0 0 C19.24227719 -0.79440594 39.93079404 0.81444478 55 14 C54.34 14.66 53.68 15.32 53 16 C52.505 15.01 52.505 15.01 52 14 C49.6859378 13.26924352 47.35171131 12.59861742 45 12 C45 11.34 45 10.68 45 10 C44.401875 9.855625 43.80375 9.71125 43.1875 9.5625 C41.43849596 9.1127561 39.71322977 8.57107659 38 8 C38 7.34 38 6.68 38 6 C35.69 6 33.38 6 31 6 C30.67 5.34 30.34 4.68 30 4 C23.55426485 2.86296027 17.03055955 2.69889379 10.5 2.4375 C8.98019531 2.37272461 8.98019531 2.37272461 7.4296875 2.30664062 C4.9532321 2.20150808 2.47669251 2.09936163 0 2 C0 1.34 0 0.68 0 0 Z " fill="#EB7878" transform="translate(378,105)"/>
<path d="M0 0 C0 0.66 0 1.32 0 2 C-0.60247559 2.03963867 -1.20495117 2.07927734 -1.82568359 2.12011719 C-13.23114752 2.9037152 -24.32379593 3.88165376 -35.41357422 6.76660156 C-41.65641855 8.35644002 -41.65641855 8.35644002 -45 7 C-30.52059187 0.81141121 -15.67175414 -0.56305703 0 0 Z " fill="#E77170" transform="translate(121,105)"/>
<path d="M0 0 C0.92574427 2.49950953 1.06603256 3.77301307 0.3125 6.36328125 C-3.07083707 13.16016375 -11.9095326 20.15071287 -19 23 C-19.99 22.67 -20.98 22.34 -22 22 C-21.34 22 -20.68 22 -20 22 C-20 20.68 -20 19.36 -20 18 C-18.02 18 -16.04 18 -14 18 C-14 17.34 -14 16.68 -14 16 C-13.01 16 -12.02 16 -11 16 C-11 15.01 -11 14.02 -11 13 C-10.34 13 -9.68 13 -9 13 C-9 12.01 -9 11.02 -9 10 C-8.67 9.67 -8.34 9.34 -8 9 C-7.67 8.01 -7.34 7.02 -7 6 C-5.02 6 -3.04 6 -1 6 C-1.020625 5.195625 -1.04125 4.39125 -1.0625 3.5625 C-1 1 -1 1 0 0 Z " fill="#E74E4F" transform="translate(442,365)"/>
<path d="M0 0 C1.07465189 0.81760259 2.1339583 1.65536956 3.1875 2.5 C3.77917969 2.9640625 4.37085938 3.428125 4.98046875 3.90625 C10.39804637 9.52292621 13.22097199 16.43923072 15.8125 23.6875 C16.12380859 24.51572266 16.43511719 25.34394531 16.75585938 26.19726562 C18.22302101 30.22470494 19.45252923 33.64329698 19 38 C16.71914229 33.6018272 15.0802142 29.01928258 13.375 24.375 C13.05015625 23.50359375 12.7253125 22.6321875 12.390625 21.734375 C11.93042969 20.48527344 11.93042969 20.48527344 11.4609375 19.2109375 C11.18040527 18.45087402 10.89987305 17.69081055 10.61083984 16.90771484 C10 15 10 15 10 13 C9.401875 12.938125 8.80375 12.87625 8.1875 12.8125 C5.07582373 11.65673453 4.51416931 9.89667172 3 7 C2.443125 6.113125 1.88625 5.22625 1.3125 4.3125 C0 2 0 2 0 0 Z " fill="#FCD5D5" transform="translate(435,121)"/>
<path d="M0 0 C0 0.66 0 1.32 0 2 C-0.66 2 -1.32 2 -2 2 C-1.6596875 3.1446875 -1.6596875 3.1446875 -1.3125 4.3125 C-1.209375 5.199375 -1.10625 6.08625 -1 7 C-2.4375 8.8125 -2.4375 8.8125 -4 10 C-4.99 9.34 -5.98 8.68 -7 8 C-10.75698557 7.62430144 -11.75366476 7.8357765 -15 10 C-15.99 9.67 -16.98 9.34 -18 9 C-16.68 8.67 -15.36 8.34 -14 8 C-14 7.34 -14 6.68 -14 6 C-12.04414675 4.99515796 -10.08523763 3.99626195 -8.125 3 C-7.03445312 2.443125 -5.94390625 1.88625 -4.8203125 1.3125 C-2 0 -2 0 0 0 Z " fill="#E81F1D" transform="translate(241,286)"/>
<path d="M0 0 C0.66 0.33 1.32 0.66 2 1 C1.39671875 1.30292969 0.7934375 1.60585938 0.171875 1.91796875 C-4.97705742 4.53851967 -4.97705742 4.53851967 -8.9375 8.625 C-13.02721677 13.33437083 -20.08842792 13.85787158 -26 15 C-22.08641316 10.60608337 -16.58344572 8.42127322 -11.4375 5.75 C-10.37080078 5.1828125 -9.30410156 4.615625 -8.20507812 4.03125 C-7.18736328 3.50015625 -6.16964844 2.9690625 -5.12109375 2.421875 C-4.1870874 1.93299805 -3.25308105 1.44412109 -2.29077148 0.94042969 C-1.1568396 0.47491699 -1.1568396 0.47491699 0 0 Z " fill="#EE7D7E" transform="translate(286,261)"/>
<path d="M0 0 C0.33 0 0.66 0 1 0 C1 5.28 1 10.56 1 16 C1.66 16 2.32 16 3 16 C3.33 15.01 3.66 14.02 4 13 C6.44146985 11.45004539 8.81919287 10.08015984 11.375 8.75 C12.06078125 8.37359375 12.7465625 7.9971875 13.453125 7.609375 C15.25916345 6.65365037 17.12770669 5.81835337 19 5 C19.99 5.33 20.98 5.66 22 6 C16.25 9 16.25 9 14 9 C13.67 10.32 13.34 11.64 13 13 C10.69 13.33 8.38 13.66 6 14 C6 14.66 6 15.32 6 16 C4.02 16.33 2.04 16.66 0 17 C0 11.39 0 5.78 0 0 Z " fill="#DD6A69" transform="translate(205,288)"/>
<path d="M0 0 C-0.33 1.32 -0.66 2.64 -1 4 C-4.63 4.66 -8.26 5.32 -12 6 C-12.33 7.32 -12.66 8.64 -13 10 C-16.63 10.66 -20.26 11.32 -24 12 C-21.38735448 10.04051586 -19.24028015 8.48565366 -16.43359375 6.9921875 C-15.4580957 6.47205078 -15.4580957 6.47205078 -14.46289062 5.94140625 C-13.79451172 5.58949219 -13.12613281 5.23757812 -12.4375 4.875 C-11.76525391 4.51535156 -11.09300781 4.15570313 -10.40039062 3.78515625 C-3.26246489 0 -3.26246489 0 0 0 Z " fill="#ED9594" transform="translate(312,249)"/>
<path d="M0 0 C2.475 0.495 2.475 0.495 5 1 C5 1.66 5 2.32 5 3 C5.71285156 3.10054687 6.42570313 3.20109375 7.16015625 3.3046875 C10.39372139 4.09639946 12.60892563 5.37528548 15.4375 7.125 C22.1145156 11.14118747 29.00023821 14.5933112 36 18 C33 19 33 19 30.49145508 17.99951172 C29.51072021 17.48146973 28.52998535 16.96342773 27.51953125 16.4296875 C26.43736328 15.8625 25.35519531 15.2953125 24.24023438 14.7109375 C23.10908203 14.10507813 21.97792969 13.49921875 20.8125 12.875 C19.70068359 12.29234375 18.58886719 11.7096875 17.44335938 11.109375 C11.47753126 7.95868306 5.61593258 4.74395506 0 1 C0 0.67 0 0.34 0 0 Z " fill="#FED8D8" transform="translate(208,188)"/>
<path d="M0 0 C3.3 0.33 6.6 0.66 10 1 C10 1.66 10 2.32 10 3 C12.31 3.66 14.62 4.32 17 5 C17 5.66 17 6.32 17 7 C17.66 7 18.32 7 19 7 C19 7.99 19 8.98 19 10 C14.37324343 8.6077541 10.35313769 6.70479016 6.125 4.375 C4.97257812 3.74335938 3.82015625 3.11171875 2.6328125 2.4609375 C1.32957031 1.73777344 1.32957031 1.73777344 0 1 C0 0.67 0 0.34 0 0 Z " fill="#E55B5A" transform="translate(269,220)"/>
<path d="M0 0 C0.33 0 0.66 0 1 0 C1.1468554 4.24192214 0.71937217 7.72935695 -0.4609375 11.80078125 C-0.76773437 12.85974609 -1.07453125 13.91871094 -1.390625 15.00976562 C-1.71546875 16.09966797 -2.0403125 17.18957031 -2.375 18.3125 C-2.69210937 19.42173828 -3.00921875 20.53097656 -3.3359375 21.67382812 C-5.13028108 27.77833453 -5.13028108 27.77833453 -6 30 C-6.66 30.33 -7.32 30.66 -8 31 C-7.80664062 30.27296875 -7.61328125 29.5459375 -7.4140625 28.796875 C-6.02766119 23.44344418 -4.81628126 18.15935149 -4 12.6875 C-3.27390126 8.00477844 -2.11529912 4.23059824 0 0 Z " fill="#D0272A" transform="translate(454,330)"/>
<path d="M0 0 C1.2375 0.0825 2.475 0.165 3.75 0.25 C4.44609375 0.29640625 5.1421875 0.3428125 5.859375 0.390625 C8.74605527 1.2123807 9.89664848 2.8666006 12 5 C14.34242647 6.55176961 16.78772184 7.89874979 19.25 9.25 C19.8996875 9.61351562 20.549375 9.97703125 21.21875 10.3515625 C22.80918426 11.24033459 24.40414448 12.12099936 26 13 C25.01 13.495 25.01 13.495 24 14 C22.1081543 13.2590332 22.1081543 13.2590332 19.82421875 12.05078125 C18.99599609 11.61443359 18.16777344 11.17808594 17.31445312 10.72851562 C16.44755859 10.26123047 15.58066406 9.79394531 14.6875 9.3125 C13.83220703 8.86455078 12.97691406 8.41660156 12.09570312 7.95507812 C7.72269737 5.62800225 3.74037122 3.29306909 0 0 Z " fill="#FCD0CF" transform="translate(288,230)"/>
<path d="M0 0 C7.47476912 1.09923075 11.57558786 4.14416041 16 10 C13.64561267 11.42944945 12.51967567 12.08661261 9.75 11.625 C9.1725 11.41875 8.595 11.2125 8 11 C9.32 10.67 10.64 10.34 12 10 C12 9.34 12 8.68 12 8 C11.34 8 10.68 8 10 8 C9.608125 7.5875 9.21625 7.175 8.8125 6.75 C6.18780183 4.21580866 3.19781235 2.74974638 0 1 C0 0.67 0 0.34 0 0 Z " fill="#D22B2A" transform="translate(304,237)"/>
<path d="M0 0 C1.79258558 0.08693141 3.58415144 0.19510504 5.375 0.3125 C6.87160156 0.39951172 6.87160156 0.39951172 8.3984375 0.48828125 C9.25695312 0.65714844 10.11546875 0.82601562 11 1 C13 4 13 4 13 7 C8.1725201 5.58707905 4.2837641 3.57025846 0 1 C0 0.67 0 0.34 0 0 Z " fill="#E45B5B" transform="translate(248,209)"/>
<path d="M0 0 C2.12508244 3.18762365 2.5020163 5.26512223 3 9 C3.66 9 4.32 9 5 9 C5 14.28 5 19.56 5 25 C4.67 25 4.34 25 4 25 C4 21.04 4 17.08 4 13 C3.34 13 2.68 13 2 13 C1.66127487 11.58461283 1.32925376 10.16762037 1 8.75 C0.814375 7.96109375 0.62875 7.1721875 0.4375 6.359375 C0 4 0 4 0 0 Z " fill="#D85859" transform="translate(450,150)"/>
<path d="M0 0 C1.43655854 -0.08131463 2.8744483 -0.13933559 4.3125 -0.1875 C5.51326172 -0.23970703 5.51326172 -0.23970703 6.73828125 -0.29296875 C9.54515278 0.07061564 10.06918236 1.02895699 12 3 C14.27161255 3.57323807 14.27161255 3.57323807 16.6875 3.6875 C17.49574219 3.75324219 18.30398437 3.81898438 19.13671875 3.88671875 C19.75160156 3.92410156 20.36648437 3.96148437 21 4 C21 4.33 21 4.66 21 5 C13.0412201 5.54470737 7.18052459 4.48901845 0 1 C0 0.67 0 0.34 0 0 Z " fill="#DE5857" transform="translate(75,386)"/>
<path d="M0 0 C0.33 1.32 0.66 2.64 1 4 C1.66 4 2.32 4 3 4 C3.06058594 4.71027344 3.12117188 5.42054688 3.18359375 6.15234375 C3.26738281 7.07144531 3.35117187 7.99054688 3.4375 8.9375 C3.51871094 9.85402344 3.59992187 10.77054687 3.68359375 11.71484375 C3.76044976 13.96159732 3.76044976 13.96159732 5 15 C5.04092937 17.33297433 5.04241723 19.66705225 5 22 C1.14991786 14.84984745 0.49153502 7.99391156 0 0 Z " fill="#D52021" transform="translate(44,329)"/>
<path d="M0 0 C0.66 0.33 1.32 0.66 2 1 C0.44835147 2.18106063 -1.11683106 3.34435453 -2.6875 4.5 C-3.99267578 5.47453125 -3.99267578 5.47453125 -5.32421875 6.46875 C-8.2094074 8.11983606 -9.73956555 8.32898077 -13 8 C-13 8.66 -13 9.32 -13 10 C-14.32 9.67 -15.64 9.34 -17 9 C-13.33996952 6.98763449 -9.67215966 4.9901388 -6 3 C-5.34128906 2.63648438 -4.68257812 2.27296875 -4.00390625 1.8984375 C-2.70079883 1.20301359 -1.35401405 0.59021125 0 0 Z " fill="#E07272" transform="translate(258,276)"/>
<path d="M0 0 C0.98995103 2.67286779 1.04574968 3.85219333 0.1875 6.625 C-1 9 -1 9 -3 11 C-3.99 11 -4.98 11 -6 11 C-6.66 10.34 -7.32 9.68 -8 9 C-7.67 8.01 -7.34 7.02 -7 6 C-5.02 6 -3.04 6 -1 6 C-1.020625 5.195625 -1.04125 4.39125 -1.0625 3.5625 C-1 1 -1 1 0 0 Z " fill="#EA3B3C" transform="translate(442,365)"/>
<path d="M0 0 C5.26267902 3.84147426 7.83207458 6.51152543 9 13 C5.18333654 11.72777885 4.88738412 10.46020423 3 7 C2.443125 6.113125 1.88625 5.22625 1.3125 4.3125 C0 2 0 2 0 0 Z " fill="#E57270" transform="translate(435,121)"/>
<path d="M0 0 C-0.1953125 1.828125 -0.1953125 1.828125 -1 4 C-3.1796875 5.484375 -3.1796875 5.484375 -5.875 6.75 C-7.20144531 7.39195313 -7.20144531 7.39195313 -8.5546875 8.046875 C-11 9 -11 9 -14 9 C-3.89320388 0 -3.89320388 0 0 0 Z " fill="#E66363" transform="translate(76,113)"/>
<path d="M0 0 C1.86826371 6.56031532 -0.06598926 11.69315423 -3.16015625 17.49609375 C-3.43730469 17.99238281 -3.71445312 18.48867187 -4 19 C-5.79341438 14.83326479 -4.01173384 11.25336659 -2.5625 7.25 C-2.19801758 6.20392578 -2.19801758 6.20392578 -1.82617188 5.13671875 C-1.22689752 3.42114902 -0.61470115 1.71010285 0 0 Z " fill="#D52A2A" transform="translate(51,139)"/>
<path d="M0 0 C3.5742977 0.32493615 5.55712453 0.63870686 8.375 2.9375 C10 5 10 5 10 7 C10.99 7 11.98 7 13 7 C13 7.66 13 8.32 13 9 C7.65632782 7.11399805 3.1854896 4.7782344 0 0 Z " fill="#E56B6A" transform="translate(62,377)"/>
<path d="M0 0 C2.31 0.33 4.62 0.66 7 1 C7 1.66 7 2.32 7 3 C7.9590625 3.1546875 7.9590625 3.1546875 8.9375 3.3125 C9.618125 3.539375 10.29875 3.76625 11 4 C11.33 4.99 11.66 5.98 12 7 C7.69235185 5.43358249 3.93828536 3.31663844 0 1 C0 0.67 0 0.34 0 0 Z " fill="#D62123" transform="translate(218,192)"/>
<path d="M0 0 C0 0.66 0 1.32 0 2 C-0.66 2 -1.32 2 -2 2 C-2 2.99 -2 3.98 -2 5 C-4.64 5 -7.28 5 -10 5 C-3.63636364 0 -3.63636364 0 0 0 Z " fill="#DE5353" transform="translate(241,286)"/>
<path d="M0 0 C-0.3125 1.875 -0.3125 1.875 -1 4 C-1.99 4.66 -2.98 5.32 -4 6 C-4 5.34 -4 4.68 -4 4 C-5.65 4.33 -7.3 4.66 -9 5 C-6.45523312 2.20075644 -3.92372883 0 0 0 Z " fill="#E01516" transform="translate(287,263)"/>
<path d="M0 0 C4.22903599 1.30898733 8.16449568 2.77005563 12 5 C12.33 5.99 12.66 6.98 13 8 C11.68 7.67 10.36 7.34 9 7 C9 6.34 9 5.68 9 5 C8.071875 4.731875 7.14375 4.46375 6.1875 4.1875 C3.23759634 3.08851629 1.94384814 2.37581439 0 0 Z " fill="#D24443" transform="translate(235,201)"/>
<path d="M0 0 C0 0.66 0 1.32 0 2 C-6.45 6.09326923 -6.45 6.09326923 -9.234375 5.62109375 C-9.81703125 5.41613281 -10.3996875 5.21117187 -11 5 C-9.54462432 4.16151196 -8.08559627 3.32936066 -6.625 2.5 C-5.81289063 2.0359375 -5.00078125 1.571875 -4.1640625 1.09375 C-2 0 -2 0 0 0 Z " fill="#E98E92" transform="translate(271,270)"/>
<path d="M0 0 C1.98 0 3.96 0 6 0 C6 0.66 6 1.32 6 2 C3.6875 3.6875 3.6875 3.6875 1 5 C0.01 4.67 -0.98 4.34 -2 4 C-1.34 4 -0.68 4 0 4 C0 2.68 0 1.36 0 0 Z " fill="#E45957" transform="translate(422,383)"/>
<path d="M0 0 C-0.33 0.99 -0.66 1.98 -1 3 C-4.63 3.66 -8.26 4.32 -12 5 C-8.20719891 2.15539918 -4.85346408 0 0 0 Z " fill="#E16362" transform="translate(300,256)"/>
<path d="M0 0 C1.9375 0.5625 1.9375 0.5625 4 2 C4.75 5.625 4.75 5.625 5 9 C1.96130589 7.48065294 1.35589694 5.01995228 0 2 C0 1.34 0 0.68 0 0 Z " fill="#DE2F2F" transform="translate(55,366)"/>
<path d="M0 0 C1.65 0.33 3.3 0.66 5 1 C5.33 1.99 5.66 2.98 6 4 C3.36 4.33 0.72 4.66 -2 5 C-0.68 4.34 0.64 3.68 2 3 C2 2.34 2 1.68 2 1 C1.34 0.67 0.68 0.34 0 0 Z " fill="#E97A7A" transform="translate(314,244)"/>
<path d="M0 0 C2.64 0.33 5.28 0.66 8 1 C8.33 1.99 8.66 2.98 9 4 C5.17902761 3.46930939 2.93828597 2.50298434 0 0 Z " fill="#E26F6D" transform="translate(288,230)"/>
<path d="M0 0 C0.33 0.99 0.66 1.98 1 3 C1.66 3 2.32 3 3 3 C3 5.97 3 8.94 3 12 C2.67 12 2.34 12 2 12 C0.40861915 7.82262526 -0.21278058 4.46839215 0 0 Z " fill="#E30E10" transform="translate(451,160)"/>
<path d="M0 0 C0.33 0 0.66 0 1 0 C1.25 2.25 1.25 2.25 1 5 C-1 7.3125 -1 7.3125 -3 9 C-3 5.30581799 -1.71820705 3.22163822 0 0 Z " fill="#DB2B2A" transform="translate(56,130)"/>
<path d="M0 0 C-1.32 0.99 -2.64 1.98 -4 3 C-5.32 2.34 -6.64 1.68 -8 1 C-4.93251126 -0.86240388 -3.40254489 -1.2151946 0 0 Z " fill="#DD171B" transform="translate(295,261)"/>
<path d="M0 0 C2.475 0.495 2.475 0.495 5 1 C5 1.66 5 2.32 5 3 C6.65 3.33 8.3 3.66 10 4 C7 5 7 5 5.17578125 4.22265625 C3.45052083 3.1484375 1.72526042 2.07421875 0 1 C0 0.67 0 0.34 0 0 Z " fill="#EFA3A0" transform="translate(208,188)"/>
</svg>
