<svg xmlns="http://www.w3.org/2000/svg" width="512" height="512" viewBox="0 0 256 256" role="img" aria-label="Avatar ZnwxKKSTKW">
  <defs>
    <linearGradient id="bg" gradientTransform="rotate(253 128 128)">
      <stop offset="0" stop-color="#ffc371"/>
      <stop offset="1" stop-color="#ff5f6d"/>
    </linearGradient>
    <filter id="grain" x="-20%" y="-20%" width="140%" height="140%">
      <feTurbulence type="fractalNoise" baseFrequency="0.9" numOctaves="3" seed="4015" />
      <feColorMatrix type="saturate" values="0" />
      <feComponentTransfer>
        <feFuncA type="table" tableValues="0 0.12" />
      </feComponentTransfer>
    </filter>
    <filter id="softShadow" x="-50%" y="-50%" width="200%" height="200%">
      <feDropShadow dx="0" dy="6" stdDeviation="8" flood-color="rgba(0,0,0,0.2)" />
    </filter>
    <clipPath id="clip">
      <rect x="16" y="16" width="224" height="224" rx="56" />
    </clipPath>
  </defs>

  <g clip-path="url(#clip)">
    <rect x="16" y="16" width="224" height="224" rx="56" fill="url(#bg)"/>
    <circle cx="67" cy="159" r="54" fill="#ff5f6d" opacity="0.3319549939036369"/>
    <rect x="92" y="149" width="87" height="87" rx="39" fill="#fbc2eb" opacity="0.21439797047525644" transform="rotate(195 135.5 192.5)"/>
    <rect x="66" y="135" width="91" height="91" rx="22" fill="#fad0c4" opacity="0.13027414133772253" transform="rotate(259 111.5 180.5)"/>
    <rect x="96" y="3" width="108" height="108" rx="22" fill="#fad0c4" opacity="0.3363883238798007" transform="rotate(121 150 57)"/>
    <circle cx="46" cy="126" r="36" fill="#fad0c4" opacity="0.24540554405655712"/>
    <rect x="97" y="129" width="106" height="106" rx="37" fill="#fbc2eb" opacity="0.3327878940710798" transform="rotate(25 150 182)"/>
    <rect x="16" y="16" width="224" height="224" rx="56" filter="url(#grain)" opacity="0.7"/>

    <!-- Headwear behind face -->
    

    <!-- Face -->
    <g filter="url(#softShadow)">
      <circle cx="128" cy="135" r="48" fill="rgba(255,255,255,0.55)"/>
      
      <!-- Eyebrows -->
      
      
      <!-- Eyes -->
      
        <circle cx="108.5" cy="119" r="6.6000000000000005" fill="rgba(17,24,39,0.78)"/>
        <circle cx="147.5" cy="119" r="6.6000000000000005" fill="rgba(17,24,39,0.78)"/>
        <circle cx="109.5" cy="117" r="3" fill="rgba(255,255,255,0.8)"/>
        <circle cx="148.5" cy="117" r="3" fill="rgba(255,255,255,0.8)"/>
        <circle cx="106.5" cy="121" r="1.5" fill="rgba(255,255,255,0.6)"/>
        <circle cx="145.5" cy="121" r="1.5" fill="rgba(255,255,255,0.6)"/>
      
      
      <!-- Mouth -->
      <path d="M 98.5 150 Q 128 164 157.5 150" fill="none" stroke="rgba(17,24,39,0.7)" stroke-width="5" stroke-linecap="round"/>
      
      <!-- Accessories -->
      
        <rect x="92.5" y="109" width="32" height="20" rx="4" fill="rgba(17,24,39,0.75)"/>
        <rect x="131.5" y="109" width="32" height="20" rx="4" fill="rgba(17,24,39,0.75)"/>
        <path d="M 124.5 119 L 131.5 119" stroke="rgba(17,24,39,0.6)" stroke-width="3"/>
        <path d="M 92.5 115 L 82.5 109" stroke="rgba(17,24,39,0.6)" stroke-width="3"/>
        <path d="M 163.5 115 L 173.5 109" stroke="rgba(17,24,39,0.6)" stroke-width="3"/>
        <rect x="94.5" y="111" width="10" height="4" rx="2" fill="rgba(255,255,255,0.2)"/>
        <rect x="133.5" y="111" width="10" height="4" rx="2" fill="rgba(255,255,255,0.2)"/>
      
    </g>
    
    <!-- Headwear in front -->
    
        <path d="M 128 87 Q 128 67 128 57" stroke="rgba(80,160,80,0.7)" stroke-width="3" fill="none"/>
        <ellipse cx="120" cy="55" rx="10" ry="6" fill="rgba(100,200,100,0.7)" transform="rotate(-30 120 55)"/>
        <ellipse cx="136" cy="55" rx="10" ry="6" fill="rgba(100,200,100,0.7)" transform="rotate(30 136 55)"/>
      
  </g>

  <rect x="16" y="16" width="224" height="224" rx="56" fill="none" stroke="rgba(255,255,255,0.35)" stroke-width="2"/>
</svg>