<svg xmlns="http://www.w3.org/2000/svg" width="512" height="512" viewBox="0 0 256 256" role="img" aria-label="Avatar X7kv7dEd8N">
  <defs>
    <linearGradient id="bg" gradientTransform="rotate(35 128 128)">
      <stop offset="0" stop-color="#3a7bd5"/>
      <stop offset="1" stop-color="#5efce8"/>
    </linearGradient>
    <filter id="grain" x="-20%" y="-20%" width="140%" height="140%">
      <feTurbulence type="fractalNoise" baseFrequency="0.9" numOctaves="3" seed="3472" />
      <feColorMatrix type="saturate" values="0" />
      <feComponentTransfer>
        <feFuncA type="table" tableValues="0 0.12" />
      </feComponentTransfer>
    </filter>
    <filter id="softShadow" x="-50%" y="-50%" width="200%" height="200%">
      <feDropShadow dx="0" dy="6" stdDeviation="8" flood-color="rgba(0,0,0,0.2)" />
    </filter>
    <clipPath id="clip">
      <rect x="16" y="16" width="224" height="224" rx="56" />
    </clipPath>
  </defs>

  <g clip-path="url(#clip)">
    <rect x="16" y="16" width="224" height="224" rx="56" fill="url(#bg)"/>
    <rect x="43" y="17" width="115" height="115" rx="40" fill="#736efe" opacity="0.2425358131621033" transform="rotate(180 100.5 74.5)"/>
    <circle cx="142.5" cy="168.5" r="34.5" fill="#736efe" opacity="0.3154373311344534"/>
    <circle cx="203" cy="77" r="28" fill="#00c6ff" opacity="0.26577468728180975"/>
    <circle cx="88" cy="139" r="65" fill="#736efe" opacity="0.13184803132433442"/>
    <rect x="6" y="0" width="91" height="91" rx="29" fill="#5efce8" opacity="0.3349837464140728" transform="rotate(280 51.5 45.5)"/>
    <rect x="89" y="45" width="136" height="136" rx="26" fill="#00c6ff" opacity="0.1629865066707134" transform="rotate(281 157 113)"/>
    <rect x="16" y="16" width="224" height="224" rx="56" filter="url(#grain)" opacity="0.7"/>

    <!-- Headwear behind face -->
    

    <!-- Face -->
    <g filter="url(#softShadow)">
      <circle cx="126" cy="136" r="48" fill="rgba(255,255,255,0.55)"/>
      
      <!-- Eyebrows -->
      
      
      <!-- Eyes -->
      
        <circle cx="103.5" cy="120" r="7" fill="rgba(17,24,39,0.78)"/>
        <circle cx="105.5" cy="118" r="2.1" fill="rgba(255,255,255,0.6)"/>
        <path d="M 141.5 120 Q 148.5 124 155.5 120" fill="none" stroke="rgba(17,24,39,0.78)" stroke-width="3" stroke-linecap="round"/>
      
      
      <!-- Mouth -->
      <path d="M 97 152 Q 126 166 155 152" fill="none" stroke="rgba(17,24,39,0.7)" stroke-width="5" stroke-linecap="round"/>
      
      <!-- Accessories -->
      
        <circle cx="103.5" cy="120" r="14" fill="none" stroke="rgba(17,24,39,0.4)" stroke-width="2.5"/>
        <circle cx="148.5" cy="120" r="14" fill="none" stroke="rgba(17,24,39,0.4)" stroke-width="2.5"/>
        <path d="M 117.5 120 L 134.5 120" stroke="rgba(17,24,39,0.4)" stroke-width="2"/>
        <path d="M 89.5 120 L 81.5 114" stroke="rgba(17,24,39,0.4)" stroke-width="2"/>
        <path d="M 162.5 120 L 170.5 114" stroke="rgba(17,24,39,0.4)" stroke-width="2"/>
      
    </g>
    
    <!-- Headwear in front -->
    
  </g>

  <rect x="16" y="16" width="224" height="224" rx="56" fill="none" stroke="rgba(255,255,255,0.35)" stroke-width="2"/>
</svg>