<svg xmlns="http://www.w3.org/2000/svg" width="512" height="512" viewBox="0 0 256 256" role="img" aria-label="Avatar B3peCmVKyo">
  <defs>
    <linearGradient id="bg" gradientTransform="rotate(159 128 128)">
      <stop offset="0" stop-color="#fad0c4"/>
      <stop offset="1" stop-color="#ff5f6d"/>
    </linearGradient>
    <filter id="grain" x="-20%" y="-20%" width="140%" height="140%">
      <feTurbulence type="fractalNoise" baseFrequency="0.9" numOctaves="3" seed="9998" />
      <feColorMatrix type="saturate" values="0" />
      <feComponentTransfer>
        <feFuncA type="table" tableValues="0 0.12" />
      </feComponentTransfer>
    </filter>
    <filter id="softShadow" x="-50%" y="-50%" width="200%" height="200%">
      <feDropShadow dx="0" dy="6" stdDeviation="8" flood-color="rgba(0,0,0,0.2)" />
    </filter>
    <clipPath id="clip">
      <rect x="16" y="16" width="224" height="224" rx="56" />
    </clipPath>
  </defs>

  <g clip-path="url(#clip)">
    <rect x="16" y="16" width="224" height="224" rx="56" fill="url(#bg)"/>
    <rect x="75" y="5" width="56" height="56" rx="26" fill="#fbc2eb" opacity="0.30394305676687505" transform="rotate(286 103 33)"/>
    <circle cx="198" cy="161" r="27" fill="#ffc371" opacity="0.3009024441428483"/>
    <circle cx="82.5" cy="209.5" r="25.5" fill="#fad0c4" opacity="0.13598160791676492"/>
    <circle cx="171" cy="129" r="58" fill="#fbc2eb" opacity="0.33341399194672705"/>
    <circle cx="136" cy="151" r="34" fill="#ff5f6d" opacity="0.17363310321234166"/>
    <rect x="103" y="0" width="96" height="96" rx="35" fill="#fbc2eb" opacity="0.24290408741217107" transform="rotate(231 151 48)"/>
    <rect x="16" y="16" width="224" height="224" rx="56" filter="url(#grain)" opacity="0.7"/>

    <!-- Headwear behind face -->
    

    <!-- Face -->
    <g filter="url(#softShadow)">
      <circle cx="123" cy="136" r="48" fill="rgba(255,255,255,0.55)"/>
      
      <!-- Eyebrows -->
      
        <path d="M 94.5 109 L 110.5 103" stroke="rgba(17,24,39,0.5)" stroke-width="3" stroke-linecap="round"/>
        <path d="M 135.5 103 L 151.5 109" stroke="rgba(17,24,39,0.5)" stroke-width="3" stroke-linecap="round"/>
      
      
      <!-- Eyes -->
      
        <ellipse cx="102.5" cy="119" rx="5.6" ry="8" fill="rgba(17,24,39,0.78)"/>
        <ellipse cx="143.5" cy="119" rx="5.6" ry="8" fill="rgba(17,24,39,0.78)"/>
      
      
      <!-- Mouth -->
      
        <path d="M 110.8 151 Q 116.9 159 123 151" fill="none" stroke="rgba(17,24,39,0.7)" stroke-width="4" stroke-linecap="round"/>
        <path d="M 123 151 Q 129.1 159 135.2 151" fill="none" stroke="rgba(17,24,39,0.7)" stroke-width="4" stroke-linecap="round"/>
      
      
      <!-- Accessories -->
      
        <circle cx="102.5" cy="119" r="14" fill="none" stroke="rgba(17,24,39,0.4)" stroke-width="2.5"/>
        <circle cx="143.5" cy="119" r="14" fill="none" stroke="rgba(17,24,39,0.4)" stroke-width="2.5"/>
        <path d="M 116.5 119 L 129.5 119" stroke="rgba(17,24,39,0.4)" stroke-width="2"/>
        <path d="M 88.5 119 L 80.5 113" stroke="rgba(17,24,39,0.4)" stroke-width="2"/>
        <path d="M 157.5 119 L 165.5 113" stroke="rgba(17,24,39,0.4)" stroke-width="2"/>
      
    </g>
    
    <!-- Headwear in front -->
    
        <path d="M 88 93 Q 78 63 93 53" fill="none" stroke="rgba(120,80,60,0.7)" stroke-width="8" stroke-linecap="round"/>
        <path d="M 158 93 Q 168 63 153 53" fill="none" stroke="rgba(120,80,60,0.7)" stroke-width="8" stroke-linecap="round"/>
      
  </g>

  <rect x="16" y="16" width="224" height="224" rx="56" fill="none" stroke="rgba(255,255,255,0.35)" stroke-width="2"/>
</svg>