<svg xmlns="http://www.w3.org/2000/svg" width="512" height="512" viewBox="0 0 256 256" role="img" aria-label="Avatar NXDQw8Tyon">
  <defs>
    <linearGradient id="bg" gradientTransform="rotate(86 128 128)">
      <stop offset="0" stop-color="#48dbfb"/>
      <stop offset="1" stop-color="#feca57"/>
    </linearGradient>
    <filter id="grain" x="-20%" y="-20%" width="140%" height="140%">
      <feTurbulence type="fractalNoise" baseFrequency="0.9" numOctaves="3" seed="9177" />
      <feColorMatrix type="saturate" values="0" />
      <feComponentTransfer>
        <feFuncA type="table" tableValues="0 0.12" />
      </feComponentTransfer>
    </filter>
    <filter id="softShadow" x="-50%" y="-50%" width="200%" height="200%">
      <feDropShadow dx="0" dy="6" stdDeviation="8" flood-color="rgba(0,0,0,0.2)" />
    </filter>
    <clipPath id="clip">
      <rect x="16" y="16" width="224" height="224" rx="56" />
    </clipPath>
  </defs>

  <g clip-path="url(#clip)">
    <rect x="16" y="16" width="224" height="224" rx="56" fill="url(#bg)"/>
    <circle cx="66" cy="163" r="50" fill="#feca57" opacity="0.192554070786573"/>
    <rect x="103" y="110" width="136" height="136" rx="33" fill="#ff9ff3" opacity="0.3257761667435989" transform="rotate(265 171 178)"/>
    <rect x="90" y="21" width="121" height="121" rx="40" fill="#ff9ff3" opacity="0.2138064548652619" transform="rotate(156 150.5 81.5)"/>
    <rect x="52" y="35" width="86" height="86" rx="31" fill="#ff6b6b" opacity="0.26485490596853195" transform="rotate(221 95 78)"/>
    <rect x="44" y="189" width="45" height="45" rx="23" fill="#feca57" opacity="0.27971658841706815" transform="rotate(120 66.5 211.5)"/>
    <circle cx="118.5" cy="67.5" r="47.5" fill="#feca57" opacity="0.26346734034363184"/>
    <rect x="16" y="16" width="224" height="224" rx="56" filter="url(#grain)" opacity="0.7"/>

    <!-- Headwear behind face -->
    

    <!-- Face -->
    <g filter="url(#softShadow)">
      <circle cx="125" cy="138" r="52" fill="rgba(255,255,255,0.55)"/>
      
      <!-- Eyebrows -->
      
      
      <!-- Eyes -->
      
        <circle cx="109" cy="123" r="6.6000000000000005" fill="rgba(17,24,39,0.78)"/>
        <circle cx="141" cy="123" r="6.6000000000000005" fill="rgba(17,24,39,0.78)"/>
        <circle cx="110" cy="121" r="3" fill="rgba(255,255,255,0.8)"/>
        <circle cx="142" cy="121" r="3" fill="rgba(255,255,255,0.8)"/>
        <circle cx="107" cy="125" r="1.5" fill="rgba(255,255,255,0.6)"/>
        <circle cx="139" cy="125" r="1.5" fill="rgba(255,255,255,0.6)"/>
      
      
      <!-- Mouth -->
      <path d="M 97 153 Q 125 167 153 153" fill="none" stroke="rgba(17,24,39,0.7)" stroke-width="5" stroke-linecap="round"/>
      
      <!-- Accessories -->
      
        <circle cx="141" cy="123" r="16" fill="none" stroke="rgba(180,140,60,0.7)" stroke-width="3"/>
        <path d="M 157 131 L 161 168" stroke="rgba(180,140,60,0.5)" stroke-width="1.5"/>
      
    </g>
    
    <!-- Headwear in front -->
    
  </g>

  <rect x="16" y="16" width="224" height="224" rx="56" fill="none" stroke="rgba(255,255,255,0.35)" stroke-width="2"/>
</svg>