<svg xmlns="http://www.w3.org/2000/svg" width="512" height="512" viewBox="0 0 256 256" role="img" aria-label="Avatar NXDQw8Tyon">
  <defs>
    <linearGradient id="bg" gradientTransform="rotate(289 128 128)">
      <stop offset="0" stop-color="#ff9a9e"/>
      <stop offset="1" stop-color="#ff5f6d"/>
    </linearGradient>
    <filter id="grain" x="-20%" y="-20%" width="140%" height="140%">
      <feTurbulence type="fractalNoise" baseFrequency="0.9" numOctaves="3" seed="3545" />
      <feColorMatrix type="saturate" values="0" />
      <feComponentTransfer>
        <feFuncA type="table" tableValues="0 0.12" />
      </feComponentTransfer>
    </filter>
    <filter id="softShadow" x="-50%" y="-50%" width="200%" height="200%">
      <feDropShadow dx="0" dy="6" stdDeviation="8" flood-color="rgba(0,0,0,0.2)" />
    </filter>
    <clipPath id="clip">
      <rect x="16" y="16" width="224" height="224" rx="56" />
    </clipPath>
  </defs>

  <g clip-path="url(#clip)">
    <rect x="16" y="16" width="224" height="224" rx="56" fill="url(#bg)"/>
    <rect x="44" y="80" width="110" height="110" rx="29" fill="#ffc371" opacity="0.28362241937778887" transform="rotate(228 99 135)"/>
    <circle cx="185" cy="146" r="34" fill="#ff9a9e" opacity="0.14042016409803182"/>
    <rect x="169" y="65" width="58" height="58" rx="26" fill="#ff5f6d" opacity="0.16831892371643334" transform="rotate(193 198 94)"/>
    <rect x="22" y="31" width="89" height="89" rx="44" fill="#fad0c4" opacity="0.13956071748863905" transform="rotate(298 66.5 75.5)"/>
    <circle cx="165.5" cy="186.5" r="45.5" fill="#fad0c4" opacity="0.30885660388972613"/>
    <rect x="104" y="26" width="96" height="96" rx="40" fill="#ff5f6d" opacity="0.2839983534766361" transform="rotate(328 152 74)"/>
    <rect x="16" y="16" width="224" height="224" rx="56" filter="url(#grain)" opacity="0.7"/>

    <!-- Headwear behind face -->
    

    <!-- Face -->
    <g filter="url(#softShadow)">
      <circle cx="127" cy="141" r="50" fill="rgba(255,255,255,0.55)"/>
      
      <!-- Eyebrows -->
      
        <path d="M 99.5 114 L 118.5 108" stroke="rgba(17,24,39,0.5)" stroke-width="3" stroke-linecap="round"/>
        <path d="M 135.5 108 L 154.5 114" stroke="rgba(17,24,39,0.5)" stroke-width="3" stroke-linecap="round"/>
      
      
      <!-- Eyes -->
      
        <circle cx="109" cy="127" r="6.6000000000000005" fill="rgba(17,24,39,0.78)"/>
        <circle cx="145" cy="127" r="6.6000000000000005" fill="rgba(17,24,39,0.78)"/>
        <circle cx="110" cy="125" r="3" fill="rgba(255,255,255,0.8)"/>
        <circle cx="146" cy="125" r="3" fill="rgba(255,255,255,0.8)"/>
        <circle cx="107" cy="129" r="1.5" fill="rgba(255,255,255,0.6)"/>
        <circle cx="143" cy="129" r="1.5" fill="rgba(255,255,255,0.6)"/>
      
      
      <!-- Mouth -->
      
        <path d="M 108 157 Q 127 175 146 157" fill="rgba(17,24,39,0.15)" stroke="rgba(17,24,39,0.7)" stroke-width="4" stroke-linecap="round"/>
        <path d="M 113 161 L 141 161" stroke="rgba(255,255,255,0.4)" stroke-width="2" stroke-linecap="round"/>
      
      
      <!-- Accessories -->
      
        <path d="M 157 111 l 3 9 h 9 l -7 5 3 9 -8 -6 -8 6 3 -9 -7 -5 h 9 z" fill="rgba(255,200,50,0.7)"/>
      
    </g>
    
    <!-- Headwear in front -->
    
        <ellipse cx="127" cy="76" rx="30" ry="8" fill="none" stroke="rgba(255,220,100,0.7)" stroke-width="4"/>
        <ellipse cx="127" cy="76" rx="26" ry="6" fill="none" stroke="rgba(255,240,150,0.4)" stroke-width="2"/>
      
  </g>

  <rect x="16" y="16" width="224" height="224" rx="56" fill="none" stroke="rgba(255,255,255,0.35)" stroke-width="2"/>
</svg>