<svg xmlns="http://www.w3.org/2000/svg" width="512" height="512" viewBox="0 0 256 256" role="img" aria-label="Avatar ut5PkXeY8b">
  <defs>
    <linearGradient id="bg" gradientTransform="rotate(352 128 128)">
      <stop offset="0" stop-color="#134e4a"/>
      <stop offset="1" stop-color="#a7f3d0"/>
    </linearGradient>
    <filter id="grain" x="-20%" y="-20%" width="140%" height="140%">
      <feTurbulence type="fractalNoise" baseFrequency="0.9" numOctaves="3" seed="9814" />
      <feColorMatrix type="saturate" values="0" />
      <feComponentTransfer>
        <feFuncA type="table" tableValues="0 0.12" />
      </feComponentTransfer>
    </filter>
    <filter id="softShadow" x="-50%" y="-50%" width="200%" height="200%">
      <feDropShadow dx="0" dy="6" stdDeviation="8" flood-color="rgba(0,0,0,0.2)" />
    </filter>
    <clipPath id="clip">
      <rect x="16" y="16" width="224" height="224" rx="56" />
    </clipPath>
  </defs>

  <g clip-path="url(#clip)">
    <rect x="16" y="16" width="224" height="224" rx="56" fill="url(#bg)"/>
    <circle cx="126" cy="158" r="63" fill="#a7f3d0" opacity="0.12818325863219798"/>
    <circle cx="74" cy="153" r="48" fill="#34d399" opacity="0.22883895706385374"/>
    <rect x="87" y="20" width="133" height="133" rx="38" fill="#a7f3d0" opacity="0.24990622328128664" transform="rotate(139 153.5 86.5)"/>
    <circle cx="74.5" cy="145.5" r="64.5" fill="#34d399" opacity="0.12253999351058155"/>
    <circle cx="116" cy="102" r="30" fill="#10b981" opacity="0.16137851432431488"/>
    <circle cx="210" cy="214" r="29" fill="#34d399" opacity="0.20614519720431418"/>
    <rect x="16" y="16" width="224" height="224" rx="56" filter="url(#grain)" opacity="0.7"/>

    <!-- Headwear behind face -->
    

    <!-- Face -->
    <g filter="url(#softShadow)">
      <circle cx="133" cy="131" r="49" fill="rgba(255,255,255,0.55)"/>
      
      <!-- Eyebrows -->
      
        <path d="M 107.5 103 L 125.5 97" stroke="rgba(17,24,39,0.5)" stroke-width="3" stroke-linecap="round"/>
        <path d="M 140.5 97 L 158.5 103" stroke="rgba(17,24,39,0.5)" stroke-width="3" stroke-linecap="round"/>
      
      
      <!-- Eyes -->
      
        <circle cx="116.5" cy="114" r="6.6000000000000005" fill="rgba(17,24,39,0.78)"/>
        <circle cx="149.5" cy="114" r="6.6000000000000005" fill="rgba(17,24,39,0.78)"/>
        <circle cx="117.5" cy="112" r="3" fill="rgba(255,255,255,0.8)"/>
        <circle cx="150.5" cy="112" r="3" fill="rgba(255,255,255,0.8)"/>
        <circle cx="114.5" cy="116" r="1.5" fill="rgba(255,255,255,0.6)"/>
        <circle cx="147.5" cy="116" r="1.5" fill="rgba(255,255,255,0.6)"/>
      
      
      <!-- Mouth -->
      
        <path d="M 123.6 144 Q 128.3 152 133 144" fill="none" stroke="rgba(17,24,39,0.7)" stroke-width="4" stroke-linecap="round"/>
        <path d="M 133 144 Q 137.7 152 142.4 144" fill="none" stroke="rgba(17,24,39,0.7)" stroke-width="4" stroke-linecap="round"/>
      
      
      <!-- Accessories -->
      
        <path d="M 163 101 l 3 9 h 9 l -7 5 3 9 -8 -6 -8 6 3 -9 -7 -5 h 9 z" fill="rgba(255,200,50,0.7)"/>
      
    </g>
    
    <!-- Headwear in front -->
    
        <path d="M 105 87 L 103 67 L 118 77 L 133 57 L 148 77 L 163 67 L 161 87 Z" fill="rgba(255,200,50,0.75)" stroke="rgba(200,150,30,0.6)" stroke-width="2"/>
        <circle cx="118" cy="79" r="3" fill="rgba(255,100,100,0.7)"/>
        <circle cx="133" cy="62" r="3" fill="rgba(100,200,255,0.7)"/>
        <circle cx="148" cy="79" r="3" fill="rgba(100,255,150,0.7)"/>
      
  </g>

  <rect x="16" y="16" width="224" height="224" rx="56" fill="none" stroke="rgba(255,255,255,0.35)" stroke-width="2"/>
</svg>