<svg xmlns="http://www.w3.org/2000/svg" width="512" height="512" viewBox="0 0 256 256" role="img" aria-label="Avatar X7kv7dEd8N">
  <defs>
    <linearGradient id="bg" gradientTransform="rotate(243 128 128)">
      <stop offset="0" stop-color="#ff9ff3"/>
      <stop offset="1" stop-color="#48dbfb"/>
    </linearGradient>
    <filter id="grain" x="-20%" y="-20%" width="140%" height="140%">
      <feTurbulence type="fractalNoise" baseFrequency="0.9" numOctaves="3" seed="7260" />
      <feColorMatrix type="saturate" values="0" />
      <feComponentTransfer>
        <feFuncA type="table" tableValues="0 0.12" />
      </feComponentTransfer>
    </filter>
    <filter id="softShadow" x="-50%" y="-50%" width="200%" height="200%">
      <feDropShadow dx="0" dy="6" stdDeviation="8" flood-color="rgba(0,0,0,0.2)" />
    </filter>
    <clipPath id="clip">
      <rect x="16" y="16" width="224" height="224" rx="56" />
    </clipPath>
  </defs>

  <g clip-path="url(#clip)">
    <rect x="16" y="16" width="224" height="224" rx="56" fill="url(#bg)"/>
    <circle cx="73" cy="75" r="63" fill="#ff6b6b" opacity="0.12450303378049284"/>
    <circle cx="189.5" cy="138.5" r="64.5" fill="#1dd1a1" opacity="0.2849961843667552"/>
    <circle cx="124" cy="165" r="68" fill="#feca57" opacity="0.22910641210153698"/>
    <circle cx="220" cy="191" r="25" fill="#ff9ff3" opacity="0.23041141962632536"/>
    <rect x="104" y="25" width="83" height="83" rx="23" fill="#ff6b6b" opacity="0.2855529929324985" transform="rotate(327 145.5 66.5)"/>
    <rect x="40" y="153" width="88" height="88" rx="22" fill="#ff6b6b" opacity="0.16648318676277996" transform="rotate(56 84 197)"/>
    <rect x="16" y="16" width="224" height="224" rx="56" filter="url(#grain)" opacity="0.7"/>

    <!-- Headwear behind face -->
    

    <!-- Face -->
    <g filter="url(#softShadow)">
      <circle cx="129" cy="137" r="48" fill="rgba(255,255,255,0.55)"/>
      
      <!-- Eyebrows -->
      
        <path d="M 99.5 109 L 113.5 103" stroke="rgba(17,24,39,0.5)" stroke-width="3" stroke-linecap="round"/>
        <path d="M 144.5 103 L 158.5 109" stroke="rgba(17,24,39,0.5)" stroke-width="3" stroke-linecap="round"/>
      
      
      <!-- Eyes -->
      
        <circle cx="106.5" cy="122" r="7" fill="rgba(17,24,39,0.78)"/>
        <circle cx="151.5" cy="122" r="7" fill="rgba(17,24,39,0.78)"/>
        <circle cx="108.5" cy="120" r="2.1" fill="rgba(255,255,255,0.6)"/>
        <circle cx="153.5" cy="120" r="2.1" fill="rgba(255,255,255,0.6)"/>
      
      
      <!-- Mouth -->
      <path d="M 111 152 Q 129 150 147 144" fill="none" stroke="rgba(17,24,39,0.7)" stroke-width="5" stroke-linecap="round"/>
      
      <!-- Accessories -->
      
    </g>
    
    <!-- Headwear in front -->
    
  </g>

  <rect x="16" y="16" width="224" height="224" rx="56" fill="none" stroke="rgba(255,255,255,0.35)" stroke-width="2"/>
</svg>