<svg xmlns="http://www.w3.org/2000/svg" width="512" height="512" viewBox="0 0 256 256" role="img" aria-label="Avatar NaezrfcTLz">
  <defs>
    <linearGradient id="bg" gradientTransform="rotate(203 128 128)">
      <stop offset="0" stop-color="#ff6b6b"/>
      <stop offset="1" stop-color="#48dbfb"/>
    </linearGradient>
    <filter id="grain" x="-20%" y="-20%" width="140%" height="140%">
      <feTurbulence type="fractalNoise" baseFrequency="0.9" numOctaves="3" seed="4915" />
      <feColorMatrix type="saturate" values="0" />
      <feComponentTransfer>
        <feFuncA type="table" tableValues="0 0.12" />
      </feComponentTransfer>
    </filter>
    <filter id="softShadow" x="-50%" y="-50%" width="200%" height="200%">
      <feDropShadow dx="0" dy="6" stdDeviation="8" flood-color="rgba(0,0,0,0.2)" />
    </filter>
    <clipPath id="clip">
      <rect x="16" y="16" width="224" height="224" rx="56" />
    </clipPath>
  </defs>

  <g clip-path="url(#clip)">
    <rect x="16" y="16" width="224" height="224" rx="56" fill="url(#bg)"/>
    <rect x="102" y="36" width="95" height="95" rx="31" fill="#feca57" opacity="0.1694800511188805" transform="rotate(291 149.5 83.5)"/>
    <circle cx="45.5" cy="86.5" r="29.5" fill="#ff9ff3" opacity="0.24006737397983668"/>
    <rect x="97" y="54" width="128" height="128" rx="34" fill="#48dbfb" opacity="0.2537556827440858" transform="rotate(140 161 118)"/>
    <circle cx="136.5" cy="174.5" r="67.5" fill="#ff9ff3" opacity="0.24640065378975123"/>
    <circle cx="75" cy="97" r="66" fill="#ff6b6b" opacity="0.1798755505029112"/>
    <circle cx="183" cy="52" r="40" fill="#ff6b6b" opacity="0.31891874884720894"/>
    <rect x="16" y="16" width="224" height="224" rx="56" filter="url(#grain)" opacity="0.7"/>

    <!-- Headwear behind face -->
    

    <!-- Face -->
    <g filter="url(#softShadow)">
      <circle cx="131" cy="133" r="54" fill="rgba(255,255,255,0.55)"/>
      
      <!-- Eyebrows -->
      
        <path d="M 105.5 97 L 124.5 97" stroke="rgba(17,24,39,0.65)" stroke-width="5" stroke-linecap="round"/>
        <path d="M 137.5 97 L 156.5 97" stroke="rgba(17,24,39,0.65)" stroke-width="5" stroke-linecap="round"/>
      
      
      <!-- Eyes -->
      
        <circle cx="115" cy="114" r="6" fill="rgba(17,24,39,0.78)"/>
        <circle cx="117" cy="112" r="1.7999999999999998" fill="rgba(255,255,255,0.6)"/>
        <path d="M 141 114 Q 147 118 153 114" fill="none" stroke="rgba(17,24,39,0.78)" stroke-width="3" stroke-linecap="round"/>
      
      
      <!-- Mouth -->
      
        <ellipse cx="131" cy="152" rx="15" ry="10" fill="rgba(17,24,39,0.7)"/>
        <ellipse cx="131" cy="149" rx="10" ry="4" fill="rgba(255,150,150,0.6)"/>
      
      
      <!-- Accessories -->
      
        <circle cx="115" cy="114" r="14" fill="none" stroke="rgba(17,24,39,0.4)" stroke-width="2.5"/>
        <circle cx="147" cy="114" r="14" fill="none" stroke="rgba(17,24,39,0.4)" stroke-width="2.5"/>
        <path d="M 129 114 L 133 114" stroke="rgba(17,24,39,0.4)" stroke-width="2"/>
        <path d="M 101 114 L 93 108" stroke="rgba(17,24,39,0.4)" stroke-width="2"/>
        <path d="M 161 114 L 169 108" stroke="rgba(17,24,39,0.4)" stroke-width="2"/>
      
    </g>
    
    <!-- Headwear in front -->
    
        <path d="M 103 84 L 101 64 L 116 74 L 131 54 L 146 74 L 161 64 L 159 84 Z" fill="rgba(255,200,50,0.75)" stroke="rgba(200,150,30,0.6)" stroke-width="2"/>
        <circle cx="116" cy="76" r="3" fill="rgba(255,100,100,0.7)"/>
        <circle cx="131" cy="59" r="3" fill="rgba(100,200,255,0.7)"/>
        <circle cx="146" cy="76" r="3" fill="rgba(100,255,150,0.7)"/>
      
  </g>

  <rect x="16" y="16" width="224" height="224" rx="56" fill="none" stroke="rgba(255,255,255,0.35)" stroke-width="2"/>
</svg>