<svg xmlns="http://www.w3.org/2000/svg" width="512" height="512" viewBox="0 0 256 256" role="img" aria-label="Avatar iXJd8YJzUx">
  <defs>
    <linearGradient id="bg" gradientTransform="rotate(108 128 128)">
      <stop offset="0" stop-color="#ff9ff3"/>
      <stop offset="1" stop-color="#feca57"/>
    </linearGradient>
    <filter id="grain" x="-20%" y="-20%" width="140%" height="140%">
      <feTurbulence type="fractalNoise" baseFrequency="0.9" numOctaves="3" seed="1103" />
      <feColorMatrix type="saturate" values="0" />
      <feComponentTransfer>
        <feFuncA type="table" tableValues="0 0.12" />
      </feComponentTransfer>
    </filter>
    <filter id="softShadow" x="-50%" y="-50%" width="200%" height="200%">
      <feDropShadow dx="0" dy="6" stdDeviation="8" flood-color="rgba(0,0,0,0.2)" />
    </filter>
    <clipPath id="clip">
      <rect x="16" y="16" width="224" height="224" rx="56" />
    </clipPath>
  </defs>

  <g clip-path="url(#clip)">
    <rect x="16" y="16" width="224" height="224" rx="56" fill="url(#bg)"/>
    <circle cx="192" cy="125" r="63" fill="#feca57" opacity="0.26698288976680484"/>
    <circle cx="50.5" cy="147.5" r="24.5" fill="#48dbfb" opacity="0.2064052429748699"/>
    <circle cx="164" cy="56" r="48" fill="#1dd1a1" opacity="0.14463867711368947"/>
    <circle cx="87" cy="183" r="61" fill="#48dbfb" opacity="0.3010064353747293"/>
    <rect x="137" y="169" width="56" height="56" rx="21" fill="#48dbfb" opacity="0.2863160393666476" transform="rotate(353 165 197)"/>
    <circle cx="79" cy="152" r="66" fill="#1dd1a1" opacity="0.1616680518956855"/>
    <rect x="16" y="16" width="224" height="224" rx="56" filter="url(#grain)" opacity="0.7"/>

    <!-- Headwear behind face -->
    

    <!-- Face -->
    <g filter="url(#softShadow)">
      <circle cx="134" cy="141" r="57" fill="rgba(255,255,255,0.55)"/>
      
      <!-- Eyebrows -->
      
        <path d="M 105.5 110 L 119.5 110" stroke="rgba(17,24,39,0.65)" stroke-width="5" stroke-linecap="round"/>
        <path d="M 148.5 110 L 162.5 110" stroke="rgba(17,24,39,0.65)" stroke-width="5" stroke-linecap="round"/>
      
      
      <!-- Eyes -->
      
        <circle cx="112.5" cy="125" r="7" fill="rgba(17,24,39,0.78)"/>
        <circle cx="155.5" cy="125" r="7" fill="rgba(17,24,39,0.78)"/>
        <circle cx="114.5" cy="123" r="2.1" fill="rgba(255,255,255,0.6)"/>
        <circle cx="157.5" cy="123" r="2.1" fill="rgba(255,255,255,0.6)"/>
      
      
      <!-- Mouth -->
      
        <ellipse cx="134" cy="162" rx="12.9" ry="10" fill="rgba(17,24,39,0.7)"/>
        <ellipse cx="134" cy="159" rx="8.6" ry="4" fill="rgba(255,150,150,0.6)"/>
      
      
      <!-- Accessories -->
      
    </g>
    
    <!-- Headwear in front -->
    
        <ellipse cx="116" cy="79" rx="14" ry="10" fill="#feca57" opacity="0.7"/>
        <ellipse cx="152" cy="79" rx="14" ry="10" fill="#feca57" opacity="0.7"/>
        <circle cx="134" cy="81" r="8" fill="#feca57" opacity="0.85"/>
      
  </g>

  <rect x="16" y="16" width="224" height="224" rx="56" fill="none" stroke="rgba(255,255,255,0.35)" stroke-width="2"/>
</svg>